<svg width="140" height="170" viewBox="0 0 121 135" fill="none" xmlns="http://www.w3.org/2000/svg">
<g clip-path="url(#clip0_1314_4396)">
<path d="M59.4619 59.4658C59.2416 58.5502 59.7642 57.8246 59.924 57.3712C60.3991 56.0453 62.4506 56.0453 63.4568 57.03C64.4631 58.0147 64.7309 59.5004 65.0591 60.8694C65.1585 61.2884 65.0937 62.0917 65.0937 62.0917C65.8711 62.1824 66.4585 62.1565 66.8169 62.3465C67.2618 62.5883 67.4388 63.1282 67.5209 63.6249C67.9744 66.3198 66.7824 69.0882 67.2186 71.7875C67.8319 75.5708 71.5504 78.7625 70.7859 82.5155C69.3694 83.5089 67.9269 84.5195 66.2857 85.0594C64.6445 85.5992 62.7399 85.6165 61.2758 84.6922C59.1034 83.3145 58.5636 80.4382 58.2267 77.8857C58.0453 76.4994 57.8596 75.0914 58.0669 73.7094C58.3347 71.9171 59.2589 70.1766 58.9609 68.3886C58.5981 66.2032 57.7732 65.3265 59.0387 63.288C60.1011 61.5734 59.9759 61.5864 59.4619 59.4615V59.4658Z" fill="#DB3565"/>
<path d="M67.1325 70.2887C64.6016 69.3343 63.8415 68.0645 62.1355 65.9699C60.7924 64.3244 60.0236 62.2773 58.0974 61.6294C57.5964 61.461 56.2705 61.3617 55.7221 61.4178C55.5882 61.1284 55.7005 60.7052 55.6184 60.3467C55.5666 60.1222 55.8257 60.282 56.1539 59.5909C56.4563 58.9561 56.7672 57.5999 56.4865 55.8854C56.3915 55.2937 56.0589 54.7797 55.5925 54.4213C55.0008 53.9678 54.1932 53.7562 53.3683 53.9419C52.9105 54.0412 52.565 54.4429 52.2756 54.6761C52.0769 54.8402 51.7142 54.9093 51.5803 55.1166C51.4334 55.3498 51.3989 55.7256 51.3298 55.9976C51.0534 57.0903 51.4291 58.2348 51.8955 59.3188C52.1201 59.8414 52.5218 60.1394 52.7982 60.3899C52.7982 60.3899 52.8414 60.9557 52.7075 61.7158C51.6796 62.1088 50.9281 62.247 50.1723 62.6228C48.9112 63.4477 48.7773 64.454 48.4793 65.9353C48.0431 68.1034 48.1252 70.0987 48.0518 72.1718C48.0215 73.0571 48.3498 73.4458 48.4793 73.5408C49.6972 74.4348 50.3623 74.6551 51.455 74.992C52.1849 77.4235 51.9258 80.261 52.6513 82.6925C52.7766 83.1157 54.7978 83.6858 55.1865 83.8931C55.4629 84.04 55.7955 84.0184 56.1064 83.9925C57.9635 83.8284 59.8034 83.5131 61.6086 83.0596C62.0578 82.9473 62.5588 82.7746 62.7359 82.3513C62.8913 81.9842 62.7359 81.5653 62.5933 81.1939C61.6389 78.7494 60.9695 75.9465 60.2137 73.1435C59.7559 71.4419 60.0452 70.2931 59.6738 68.328C61.9887 70.319 64.1222 72.0077 67.5946 73.0874C67.9962 73.2126 68.5534 73.2342 68.5577 72.0508C68.5577 71.5887 67.9271 70.5867 67.1281 70.2844L67.1325 70.2887ZM50.6301 71.8565C50.4876 71.809 50.5135 69.6971 50.6301 69.2393C50.9368 70.2672 50.7856 71.0402 51.0922 72.0681C50.8201 71.9429 50.9108 71.9515 50.6258 71.8565H50.6301Z" fill="#BF214E"/>
<path d="M28.4181 16.8904C33.7605 37.785 38.0016 58.9388 43.0374 79.9068C43.1454 80.356 43.8407 80.166 43.7327 79.7168C38.6969 58.7487 34.4558 37.595 29.1134 16.7004C28.9968 16.2512 28.3058 16.4412 28.4181 16.8904Z" fill="#A5642F"/>
<path d="M97.3082 13.4875C89.9705 35.1811 85.3882 57.6219 79.4843 79.7171C79.3633 80.1663 80.0587 80.3563 80.1796 79.9072C86.0835 57.8119 90.6615 35.3711 98.0035 13.6775C98.1504 13.237 97.4594 13.047 97.3082 13.4875Z" fill="#A5642F"/>
<path d="M37.5526 13.6777C42.1694 36.4078 44.791 59.4619 48.1338 82.395C48.1986 82.8528 48.8939 82.6584 48.8291 82.205C45.4863 59.2718 42.8604 36.2135 38.2479 13.4876C38.1572 13.0342 37.4619 13.2242 37.5526 13.6777Z" fill="#A5642F"/>
<path d="M75.6319 79.9074C78.9747 58.8702 81.8381 37.751 86.1958 16.8909C86.2908 16.4375 85.5955 16.2474 85.5005 16.7009C81.1385 37.561 78.275 58.6802 74.9366 79.7173C74.8632 80.1708 75.5585 80.3652 75.6319 79.9074Z" fill="#A5642F"/>
<path d="M45.7799 108.468C45.9569 109.846 46.3456 111.478 47.7536 111.979C48.2848 112.169 48.8765 112.152 49.4466 112.13C58.8314 111.802 66.2642 111.914 75.6534 112.143C76.2451 112.156 77.4803 112.143 78.4261 111.331C79.2726 110.606 79.5058 108.623 79.5015 108.179C79.3849 99.7611 79.9291 93.4599 79.8124 85.0424C69.3608 86.1696 53.8691 84.6451 43.3872 85.0424C43.3872 85.0424 45.1795 103.816 45.7842 108.468H45.7799Z" fill="#A5642F"/>
<path d="M41.9492 88.1604C42.8173 88.5231 69.5639 88.1258 81.985 87.9401C82.2312 83.8501 82.1664 81.397 82.3607 77.9419C82.3953 77.3243 81.8943 76.8061 81.2724 76.832C69.9181 77.333 52.1028 77.4625 41.8412 77.4712C41.215 77.4712 40.7313 78.0197 40.809 78.6416L41.9535 88.1604H41.9492Z" fill="#B7763C"/>
<path d="M42.3249 88.5192C55.3894 89.5514 68.4539 89.0116 81.5142 88.2255C82.4341 88.1694 82.4427 86.7312 81.5142 86.7874C68.4539 87.5734 55.3894 88.1176 42.3249 87.081C41.4006 87.0076 41.4049 88.4501 42.3249 88.5192Z" fill="#F2A96D"/>
<path d="M42.8906 88.6579C43.2448 91.1154 43.7803 100.09 48.246 99.0146C51.6234 98.2026 52.0423 91.0679 52.2971 88.3988C51.8263 88.4636 51.3556 88.5284 50.8848 88.5888C51.3945 91.4868 53.0658 99.7531 57.3847 99.2564C60.9953 98.8418 61.3494 91.0333 61.5049 88.3945C61.0341 88.4593 60.5634 88.5241 60.0926 88.5845C60.5893 91.1802 62.1786 99.6797 66.1347 99.2478C69.9699 98.8332 70.7429 90.8908 70.8941 88.1008C70.4233 88.1656 69.9526 88.2304 69.4818 88.2908C70.2549 90.9167 71.2353 98.4574 74.9063 98.8073C79.7434 99.2651 80.2444 91.0376 80.2315 87.9972C80.2315 87.0729 78.789 87.0686 78.7933 87.9972C78.8019 89.7549 77.8518 99.7358 74.2758 96.9113C73.0406 95.9352 72.518 93.5987 72.0731 92.1778C71.6326 90.7655 71.2871 89.3274 70.8682 87.9108C70.635 87.1161 69.4991 87.2975 69.4559 88.1008C69.3609 89.8197 68.4194 98.1637 65.7201 97.8053C64.2387 97.6066 63.2022 94.1904 62.8178 93.1021C62.2521 91.5084 61.8029 89.8629 61.4833 88.2002C61.3235 87.3666 60.1142 87.6214 60.071 88.3902C59.9674 90.1393 59.4146 97.9996 56.8924 97.7362C55.1087 97.5505 54.016 94.3286 53.5237 92.9639C52.9708 91.422 52.5649 89.8154 52.2798 88.2002C52.1287 87.345 50.9367 87.643 50.8676 88.3902C50.725 89.8888 50.4832 91.3875 50.1463 92.8559C49.8569 94.1213 49.4769 96.6651 48.2633 97.408C45.4906 99.1053 44.5016 89.729 44.2899 88.2649C44.1604 87.3493 42.7697 87.738 42.9036 88.6493L42.8906 88.6579Z" fill="#F2A96D"/>
<path d="M109.073 8.65112C108.641 9.1521 108.196 9.64877 107.742 10.1368C95.5072 23.4389 77.5882 32.7935 61.7942 40.2911C61.7942 40.2911 23.2398 20.0529 13.1855 8.19332C3.12252 -3.66194 -5.29925 -21.9134 4.05971 -37.2454C6.83674 -41.8061 10.0025 -45.1489 13.3755 -47.4724C31.5536 -60.0533 57.5617 -47.4724 61.7467 -29.5794C62.3168 -37.742 71.0279 -47.9777 78.5773 -51.1262C95.4424 -58.1573 110.58 -51.0528 116.505 -42.8901C123.653 -33.0474 129.98 -15.4351 109.073 8.65544V8.65112Z" fill="#FF7697"/>
<path d="M107.738 10.1405C95.503 23.4426 77.5841 32.7972 61.79 40.2948C61.79 40.2948 23.2356 20.0566 13.1813 8.19703C3.12265 -3.66255 -5.29912 -21.914 4.05984 -37.246C6.83686 -41.8067 10.0026 -45.1495 13.3756 -47.473C9.32452 -41.703 7.62721 -33.9982 8.02023 -26.8203C8.586 -16.4377 12.7321 -6.28409 19.5948 1.52872C23.7452 6.25355 28.7982 10.0887 33.8556 13.8245C40.8608 18.9985 48.0474 24.1077 56.1539 27.2734C59.8163 28.7073 63.7076 29.7395 67.6377 29.5365C70.743 29.3767 73.7619 28.4525 76.6944 27.4073C87.9018 23.4167 98.4269 17.543 107.738 10.1405Z" fill="#EF5E87"/>
<path d="M50.548 16.1996C52.6642 18.3633 55.0396 20.2593 57.6741 21.7579C59.4233 22.7513 61.587 23.8828 63.0209 21.8573C64.0919 20.3414 61.6 18.9032 60.5332 20.4061C60.4598 20.5098 60.3864 20.6091 60.3173 20.7128C60.6023 20.4925 60.8917 20.2723 61.1767 20.052C60.1315 20.4752 57.6093 18.372 56.7715 17.7889C55.2512 16.7265 53.8778 15.4956 52.5822 14.1697C51.2865 12.8395 49.2523 14.878 50.548 16.2039V16.1996Z" fill="#EF5E87"/>
<path d="M60.8613 12.9737C62.0965 14.2391 63.5347 15.2929 65.124 16.066C65.8236 16.4071 66.6788 16.256 67.0934 15.5477C67.4648 14.9128 67.2791 13.9195 66.5751 13.5783C65.1888 12.9046 63.9709 12.0365 62.8955 10.9352C61.5998 9.60927 59.5613 11.6434 60.8613 12.9693V12.9737Z" fill="#EF5E87"/>
<path d="M68.1776 8.9484C68.9334 9.28527 69.6892 9.62214 70.445 9.95901C71.1317 10.2656 72.0257 10.1793 72.4144 9.44075C72.7469 8.81451 72.6303 7.79958 71.8961 7.47135C71.1403 7.13448 70.3845 6.79761 69.6287 6.46074C68.942 6.1541 68.048 6.24048 67.6593 6.979C67.3268 7.60523 67.4434 8.62016 68.1776 8.9484Z" fill="#EF5E87"/>
<path d="M76.9837 4.9064C77.0701 4.73796 77.1522 4.56953 77.2385 4.40109C77.5754 3.72735 77.4372 2.81175 76.7203 2.43169C76.0681 2.08619 75.1093 2.22871 74.7509 2.94996C74.6645 3.11839 74.5825 3.28683 74.4961 3.45526C74.1592 4.129 74.2974 5.0446 75.0143 5.42466C75.6665 5.77017 76.6253 5.62765 76.9837 4.9064Z" fill="#EF5E87"/>
</g>
<g clip-path="url(#clip1_1314_4396)">
<path d="M91.7518 90.8235C92.4898 90.1589 93.7154 90.4802 94.0317 91.4221C94.1679 91.2857 94.2996 91.1492 94.4358 91.0172C94.102 90.9556 93.7681 90.8984 93.4343 90.8367V91.475C93.7374 91.4838 94.0361 91.4926 94.3392 91.5058C94.5325 91.5894 94.7609 91.5322 94.8224 91.3077C95.0552 90.4758 95.8415 90.0533 96.6542 90.2733C97.0627 90.3878 97.2384 89.7496 96.8299 89.6351C95.657 89.3138 94.5193 89.9608 94.1898 91.1272C94.3524 91.0612 94.5105 90.9952 94.673 90.9292C94.1679 90.7135 93.7901 90.6695 93.2629 90.8323C92.973 90.9204 92.9247 91.4089 93.2629 91.4706C93.5968 91.5322 93.9306 91.5894 94.2645 91.651C94.4929 91.6906 94.7565 91.5058 94.6686 91.2461C94.1898 89.8244 92.402 89.3534 91.2862 90.357C90.9699 90.6431 91.4355 91.1052 91.7518 90.8235Z" fill="#FC8F77"/>
<path d="M72.1819 96.7486C72.7793 96.2072 73.6316 96.2776 74.1719 96.8718C74.1938 96.7001 74.2158 96.5241 74.2378 96.3524C74.0225 96.4713 73.8073 96.5945 73.592 96.7133C73.3899 96.8278 73.3987 97.0699 73.5261 97.2327C73.7853 97.5584 74.1323 97.4792 74.4266 97.2283C74.677 97.0127 74.7781 96.6957 74.9889 96.4493C75.4106 95.9607 76.0564 95.8418 76.6494 96.0091C77.0579 96.1235 77.2336 95.4897 76.8251 95.3709C76.276 95.2168 75.7269 95.2344 75.2042 95.4809C75.0241 95.5645 73.7941 96.5197 73.9874 96.7618C73.9654 96.9334 73.9434 97.1095 73.9215 97.2811C74.1367 97.1623 74.352 97.0391 74.5672 96.9202C74.7605 96.8102 74.7737 96.5549 74.6331 96.4008C73.8468 95.5337 72.5729 95.5029 71.7119 96.2776C71.3956 96.5637 71.8656 97.0303 72.1775 96.7442L72.1819 96.7486Z" fill="#FC8F77"/>
<path d="M60.9494 48.6433C62.0959 48.1548 63.3171 48.0095 64.5427 48.212V47.5738C64.1606 47.719 63.7828 47.8687 63.4006 48.0139C63.5412 48.1196 63.6773 48.2252 63.8179 48.3308C63.8882 47.5121 64.3055 46.8783 65.0128 46.4646C65.3774 46.2533 65.0479 45.6811 64.6789 45.8924C63.7652 46.425 63.2469 47.2745 63.159 48.3264C63.1414 48.5289 63.383 48.7182 63.5763 48.6433C63.9585 48.4981 64.3363 48.3484 64.7184 48.2032C64.9864 48.1019 65.0743 47.6266 64.7184 47.565C63.2952 47.3317 61.9378 47.4989 60.6156 48.0623C60.2246 48.2296 60.5629 48.7974 60.9494 48.6345V48.6433Z" fill="#FC8F77"/>
<path d="M75.327 57.1121C76.1617 55.6112 78.3009 55.2943 79.5265 56.5091C79.6056 56.3198 79.6803 56.135 79.7594 55.9457C79.3376 55.9413 78.9115 55.9325 78.4898 55.9281L78.8193 56.2582C78.9247 54.9246 79.8867 53.9298 81.1826 53.7009C81.5999 53.6261 81.4242 52.9923 81.0069 53.0627C79.4035 53.3444 78.2834 54.6429 78.1604 56.2538C78.1472 56.4343 78.3229 56.5795 78.4898 56.5839C78.9115 56.5883 79.3376 56.5971 79.7594 56.6015C80.0449 56.6015 80.1942 56.2362 79.9922 56.0381C78.4723 54.5328 75.8014 54.9025 74.7604 56.7732C74.5539 57.1429 75.1206 57.4774 75.3314 57.1077L75.327 57.1121Z" fill="#FC8F77"/>
<path d="M95.9339 105.957C96.1491 105.371 96.5181 104.962 97.076 104.689C97.2342 104.597 97.4055 104.531 97.5856 104.495C98.0073 104.385 98.4114 104.447 98.798 104.685C98.9473 104.834 99.0967 104.984 99.2505 105.138C99.9006 103.809 100.845 103.056 102.365 103.003C102.787 102.99 102.791 102.33 102.365 102.343C100.63 102.405 99.4393 103.263 98.6838 104.808C98.552 105.076 98.8419 105.464 99.1362 105.261C100.006 104.649 98.9254 103.857 98.2313 103.804C96.8959 103.708 95.7538 104.566 95.3057 105.785C95.1564 106.186 95.7933 106.357 95.9427 105.961L95.9339 105.957Z" fill="#FC8F77"/>
<path d="M71.4265 40.466C71.3738 39.1147 73.0167 38.4809 73.7942 39.7001C73.9875 40.0038 74.5103 39.8145 74.3961 39.4448C74.4663 39.326 74.5366 39.2027 74.6069 39.0839C74.5015 39.0047 74.3961 38.921 74.2906 38.8418C74.2511 38.9739 74.2116 39.1059 74.172 39.2379C74.339 39.3348 74.5015 39.4272 74.6684 39.524C74.6157 38.3488 75.5514 37.4949 76.6979 37.6006C77.1196 37.6402 77.1152 36.98 76.6979 36.9403C75.1999 36.8039 73.9436 38.0275 74.0095 39.524C74.0183 39.7485 74.2906 39.9686 74.5059 39.8101C74.9144 39.5108 75.0594 39.1631 74.9276 38.6657C74.8924 38.5337 74.7519 38.4149 74.6113 38.4237C73.9568 38.4721 73.5614 38.9694 73.7635 39.6209C73.9656 39.5372 74.1632 39.4492 74.3653 39.3656C73.2583 37.6226 70.6885 38.362 70.772 40.466C70.7896 40.8885 71.4485 40.8929 71.4309 40.466H71.4265Z" fill="#FC8F77"/>
<path d="M68.2681 121.173C68.9358 121.01 71.3826 120.847 70.6578 122.467C70.5084 122.801 70.8862 123.131 71.1761 122.867C72.3754 121.776 73.8821 121.331 75.4811 121.534C75.8984 121.587 75.8984 120.926 75.4811 120.873C73.7064 120.645 72.0327 121.199 70.7105 122.401C70.8818 122.533 71.0575 122.669 71.2288 122.801C71.5407 122.106 71.4002 121.388 70.8291 120.869C70.0779 120.182 69.0061 120.319 68.0924 120.539C67.6795 120.64 67.8552 121.274 68.2681 121.177V121.173Z" fill="#FC8F77"/>
<path d="M103.028 78.1912C104.17 77.8522 105.255 78.3584 105.765 79.428C105.831 79.2651 105.897 79.1067 105.963 78.9438C105.681 78.9262 105.396 78.9042 105.115 78.8866C105.088 79.0891 105.062 79.2871 105.036 79.4896C105.312 79.5248 105.585 79.5556 105.862 79.5908C106.086 79.6745 106.252 79.4632 106.279 79.2739C106.389 78.4112 107.342 78.5213 107.882 78.803C108.379 79.0627 108.686 79.494 109.016 79.9386C109.266 80.2775 109.837 79.9474 109.587 79.604C108.994 78.7986 108.238 77.839 107.127 77.9006C106.31 77.9447 105.721 78.4816 105.62 79.2739C105.761 79.1683 105.897 79.0627 106.037 78.957C105.616 78.7942 105.304 78.781 104.864 78.8558C104.592 78.8998 104.539 79.3444 104.785 79.4588C105.264 79.6833 105.629 79.7273 106.143 79.582C106.362 79.5204 106.428 79.2871 106.34 79.0979C105.708 77.773 104.263 77.1436 102.861 77.5573C102.457 77.6762 102.628 78.3144 103.037 78.1955L103.028 78.1912Z" fill="#FC8F77"/>
<path d="M67.552 22.7887C67.5696 21.2966 70.0779 21.1469 70.6401 22.3309C70.7631 22.1681 70.8861 22.0096 71.0135 21.8468C70.4205 21.6531 69.8846 21.9568 69.7748 22.5774C69.7177 22.9119 70.0647 23.11 70.3239 22.8987C71.365 22.0624 72.9771 19.6372 74.5366 20.8652C74.866 21.1249 75.336 20.6627 75.0022 20.3986C72.9991 18.8185 71.2639 21.301 69.8582 22.4322C70.0427 22.5378 70.2272 22.6478 70.4073 22.7535C70.5479 22.661 70.6929 22.573 70.8334 22.4806C71.1277 22.5774 71.321 22.2385 71.2068 21.9964C70.3546 20.2006 66.9107 20.6627 66.8887 22.7843C66.8843 23.2112 67.5432 23.2112 67.5476 22.7843L67.552 22.7887Z" fill="#FC8F77"/>
</g>
<defs>
<clipPath id="clip0_1314_4396">
<rect width="123.312" height="166.142" fill="white" transform="translate(0 -53.998)"/>
</clipPath>
<clipPath id="clip1_1314_4396">
<rect width="188.82" height="136.258" fill="white" transform="translate(60.4443 -1.57227)"/>
</clipPath>
</defs>
</svg>
