<svg width="26" height="26" viewBox="0 0 24 24" fill="none" xmlns="http://www.w3.org/2000/svg">
<path d="M22.875 8.95312H2.625V5.95312C2.625 5.5553 2.78304 5.17377 3.06434 4.89246C3.34564 4.61116 3.72718 4.45313 4.125 4.45312H21.375C21.7728 4.45313 22.1544 4.61116 22.4357 4.89246C22.717 5.17377 22.875 5.5553 22.875 5.95312V8.95312Z" fill="url(#paint0_linear_1314_4658)"/>
<path d="M2.625 8.95312H22.875V21.3281C22.875 21.7259 22.717 22.1075 22.4357 22.3888C22.1544 22.6701 21.7728 22.8281 21.375 22.8281H4.125C3.72718 22.8281 3.34564 22.6701 3.06434 22.3888C2.78304 22.1075 2.625 21.7259 2.625 21.3281V8.95312Z" fill="#DADDE0"/>
<path d="M21.375 7.5H1.125V4.5C1.125 4.10218 1.28304 3.72064 1.56434 3.43934C1.84564 3.15804 2.22718 3 2.625 3H19.875C20.2728 3 20.6544 3.15804 20.9357 3.43934C21.217 3.72064 21.375 4.10218 21.375 4.5V7.5Z" fill="url(#paint1_linear_1314_4658)"/>
<path d="M1.125 7.5H21.375V19.875C21.375 20.2728 21.217 20.6544 20.9357 20.9357C20.6544 21.217 20.2728 21.375 19.875 21.375H2.625C2.22718 21.375 1.84564 21.217 1.56434 20.9357C1.28304 20.6544 1.125 20.2728 1.125 19.875V7.5Z" fill="#EEF2F5"/>
<path d="M3 9.375H7.125V13.5H3V9.375ZM9.375 9.375H13.5V13.5H9.375V9.375ZM15.375 9.375H19.5V13.5H15.375V9.375ZM3 15.375H7.125V19.5H3V15.375ZM9.375 15.375H13.5V19.5H9.375V15.375ZM15.375 15.375H19.5V19.5H15.375V15.375Z" fill="#CDDAE2"/>
<path d="M6 6.375C5.70163 6.375 5.41548 6.25647 5.2045 6.0455C4.99353 5.83452 4.875 5.54837 4.875 5.25C4.875 4.95163 4.99353 4.66548 5.2045 4.4545C5.41548 4.24353 5.70163 4.125 6 4.125V4.875C5.90054 4.875 5.80516 4.91451 5.73484 4.98484C5.66451 5.05516 5.625 5.15054 5.625 5.25C5.625 5.34946 5.66451 5.44484 5.73484 5.51516C5.80516 5.58549 5.90054 5.625 6 5.625V6.375ZM16.5 6.375C16.2016 6.375 15.9155 6.25647 15.7045 6.0455C15.4935 5.83452 15.375 5.54837 15.375 5.25C15.375 4.95163 15.4935 4.66548 15.7045 4.4545C15.9155 4.24353 16.2016 4.125 16.5 4.125V4.875C16.4005 4.875 16.3052 4.91451 16.2348 4.98484C16.1645 5.05516 16.125 5.15054 16.125 5.25C16.125 5.34946 16.1645 5.44484 16.2348 5.51516C16.3052 5.58549 16.4005 5.625 16.5 5.625V6.375Z" fill="url(#paint2_linear_1314_4658)"/>
<path d="M6 5.625V4.875C6.09946 4.875 6.19484 4.83549 6.26517 4.76516C6.33549 4.69484 6.375 4.59946 6.375 4.5V1.875C6.375 1.77554 6.33549 1.68016 6.26517 1.60984C6.19484 1.53951 6.09946 1.5 6 1.5C5.90054 1.5 5.80516 1.53951 5.73484 1.60984C5.66451 1.68016 5.625 1.77554 5.625 1.875V3H4.875V1.875C4.875 1.57663 4.99353 1.29048 5.2045 1.0795C5.41548 0.868526 5.70163 0.75 6 0.75C6.29837 0.75 6.58452 0.868526 6.7955 1.0795C7.00647 1.29048 7.125 1.57663 7.125 1.875V4.5C7.125 4.79837 7.00647 5.08452 6.7955 5.2955C6.58452 5.50647 6.29837 5.625 6 5.625ZM16.5 5.625V4.875C16.5995 4.875 16.6948 4.83549 16.7652 4.76516C16.8355 4.69484 16.875 4.59946 16.875 4.5V1.875C16.875 1.77554 16.8355 1.68016 16.7652 1.60984C16.6948 1.53951 16.5995 1.5 16.5 1.5C16.4005 1.5 16.3052 1.53951 16.2348 1.60984C16.1645 1.68016 16.125 1.77554 16.125 1.875V3H15.375V1.875C15.375 1.57663 15.4935 1.29048 15.7045 1.0795C15.9155 0.868526 16.2016 0.75 16.5 0.75C16.7984 0.75 17.0845 0.868526 17.2955 1.0795C17.5065 1.29048 17.625 1.57663 17.625 1.875V4.5C17.625 4.79837 17.5065 5.08452 17.2955 5.2955C17.0845 5.50647 16.7984 5.625 16.5 5.625Z" fill="url(#paint3_linear_1314_4658)"/>
<defs>
<linearGradient id="paint0_linear_1314_4658" x1="0.0937502" y1="4.45312" x2="5.91691" y2="16.892" gradientUnits="userSpaceOnUse">
<stop stop-color="#E82E5D"/>
<stop offset="1" stop-color="#AA1B6F"/>
</linearGradient>
<linearGradient id="paint1_linear_1314_4658" x1="-1.40625" y1="3" x2="4.41691" y2="15.4388" gradientUnits="userSpaceOnUse">
<stop stop-color="#E82E5D"/>
<stop offset="1" stop-color="#AA1B6F"/>
</linearGradient>
<linearGradient id="paint2_linear_1314_4658" x1="5.55609" y1="4.32723" x2="7.02479" y2="8.90222" gradientUnits="userSpaceOnUse">
<stop stop-color="#FCA206"/>
<stop offset="0.64558" stop-color="#D10FBE"/>
<stop offset="1" stop-color="#465AED"/>
</linearGradient>
<linearGradient id="paint3_linear_1314_4658" x1="5.622" y1="1.18817" x2="10.5673" y2="8.986" gradientUnits="userSpaceOnUse">
<stop stop-color="#FCA206"/>
<stop offset="0.64558" stop-color="#D10FBE"/>
<stop offset="1" stop-color="#465AED"/>
</linearGradient>
</defs>
</svg>
