<svg width="411" height="158" viewBox="0 0 411 158" fill="#FFFFFF" xmlns="http://www.w3.org/2000/svg">
<path fill-rule="evenodd" clip-rule="evenodd" d="M-67.87 31.1039C-67.7228 29.9678 -67.6468 28.8093 -67.6468 27.633C-67.6468 12.8647 -79.6189 0.892578 -94.3872 0.892578C-109.156 0.892578 -121.128 12.8647 -121.128 27.633C-121.128 34.6244 -118.445 40.9892 -114.052 45.7537C-114.839 47.5254 -115.276 49.4868 -115.276 51.5502C-115.276 56.103 -113.148 60.1587 -109.832 62.7773C-112.957 67.1535 -114.795 72.5112 -114.795 78.2982C-114.795 93.0666 -102.823 105.039 -88.0548 105.039C-84.5584 105.039 -81.2187 104.368 -78.1576 103.147C-67.8297 109.635 -54.0316 108.385 -45.0418 99.3948C-42.924 97.277 -41.2356 94.8923 -39.9768 92.349C-36.0612 95.6178 -30.704 97.0589 -25.3626 95.7785C-23.7259 95.3861 -22.2038 94.7654 -20.8219 93.9582C-17.2092 104.292 -6.31618 110.463 4.5945 107.938C10.9905 106.458 16.0683 102.296 18.9146 96.915C19.8893 104.032 24.4653 110.269 31.0807 113.287C30.7339 115.334 30.5533 117.437 30.5533 119.583C30.5533 140.249 47.3067 157.003 67.9731 157.003C82.2328 157.003 94.6295 149.027 100.945 137.292C104.236 138.672 107.849 139.435 111.641 139.435C115.257 139.435 118.711 138.741 121.878 137.48C122.061 139.141 122.471 140.805 123.127 142.432C126.986 152.002 137.873 156.633 147.444 152.773C150.452 151.56 152.973 149.653 154.895 147.31C158.113 149.936 162.223 151.512 166.701 151.512C173.438 151.512 179.342 147.946 182.63 142.6C185.391 146.292 189.515 148.975 194.417 149.819C202.887 151.28 211.008 146.789 214.498 139.371C218.815 141.11 223.53 142.067 228.469 142.067C242.729 142.067 255.126 134.091 261.441 122.356C264.732 123.736 268.346 124.499 272.137 124.499C275.753 124.499 279.207 123.805 282.374 122.544C282.557 124.205 282.967 125.869 283.623 127.495C287.482 137.066 298.369 141.696 307.94 137.837C310.949 136.624 313.469 134.717 315.391 132.374C318.609 135 322.719 136.576 327.197 136.576C329.125 136.576 330.984 136.284 332.733 135.742C339.156 138.534 346.651 138.076 352.722 134.37C353.433 134.582 354.164 134.754 354.913 134.883C362.774 136.238 370.333 132.469 374.17 125.991C377.943 125.25 381.545 123.417 384.469 120.494C387.238 117.725 389.028 114.347 389.839 110.792C391.869 110.462 393.797 109.828 395.574 108.937C395.477 109.862 395.428 110.801 395.428 111.751C395.428 126.519 407.4 138.492 422.168 138.492C425.14 138.492 427.998 138.007 430.669 137.112C434.656 139.474 439.309 140.83 444.279 140.83C459.048 140.83 471.02 128.858 471.02 114.09C471.02 105.118 466.602 97.1791 459.823 92.3284C461.537 89.3735 462.519 85.9407 462.519 82.2786C462.519 71.2016 453.539 62.222 442.462 62.222C439.309 62.222 436.326 62.9496 433.672 64.246C431.263 53.491 421.658 45.4542 410.177 45.4542C396.88 45.4542 386.1 56.2337 386.1 69.531C386.1 70.0053 386.114 70.4764 386.141 70.944C379.001 71.1044 372.782 74.9959 369.357 80.7454C367.326 78.8924 364.808 77.5157 361.942 76.8393C354.179 75.007 346.402 78.9143 343.066 85.8082C341.667 85.5803 340.233 85.6207 338.847 85.9294C337.212 75.52 329.674 66.512 318.855 63.5281C310.747 61.2915 302.485 62.9053 296.018 67.2645C294.326 64.6572 291.389 62.9324 288.05 62.9324C286.352 62.9324 284.758 63.3783 283.379 64.1594C281.444 53.6309 273.456 44.7359 262.361 42.1804C248.791 39.055 235.253 46.4907 230.358 59.1014C229.441 58.6033 228.426 58.2491 227.337 58.0736C222.321 57.2648 217.59 60.5461 216.544 65.4613C213.56 61.9206 209.398 59.3309 204.504 58.3573C193.044 56.0778 181.907 63.5197 179.627 74.9792C177.675 84.7927 182.852 94.3702 191.577 98.3506C191.23 100.398 191.049 102.501 191.049 104.647C191.049 105.716 191.094 106.775 191.182 107.822C190.643 106.374 189.791 105.016 188.627 103.852C185.839 101.063 181.935 100.067 178.351 100.865C176.716 90.456 169.178 81.4481 158.359 78.4641C150.251 76.2276 141.989 77.8414 135.521 82.2006C133.83 79.5933 130.893 77.8685 127.554 77.8685C125.856 77.8685 124.262 78.3144 122.883 79.0955C120.948 68.567 112.96 59.6719 101.865 57.1165C88.2948 53.9911 74.7573 61.4268 69.862 74.0375C68.9451 73.5394 67.9297 73.1852 66.8412 73.0097C61.8249 72.2008 57.0938 75.4821 56.0482 80.3974C53.064 76.8567 48.9022 74.267 44.0075 73.2934C34.6726 71.4365 25.5513 76.0305 21.2579 83.9921C21.1659 83.2816 21.0381 82.569 20.8732 81.8563C18.5143 71.6635 9.34464 64.8185 -0.714607 65.0173C-0.366882 60.336 -1.98287 55.5362 -5.56258 51.9565C-12.0881 45.4309 -22.6681 45.4309 -29.1936 51.9565C-30.3992 53.162 -31.382 54.5059 -32.1421 55.9371C-34.5277 54.3243 -37.404 53.3825 -40.5004 53.3825C-41.0701 53.3825 -41.6324 53.4144 -42.1855 53.4765C-41.742 50.4838 -42.5346 47.3222 -44.6353 44.8249C-48.2066 40.5794 -54.3167 39.7297 -58.8723 42.629C-59.5362 37.353 -63.0748 32.9719 -67.87 31.1039ZM191.857 112.417C191.831 112.836 191.78 113.254 191.706 113.668C191.841 113.623 191.976 113.579 192.112 113.538C192.022 113.166 191.937 112.793 191.857 112.417ZM539.391 114.186C539.843 114.738 540.327 115.272 540.842 115.787C549.289 124.234 562.985 124.234 571.432 115.787C575.137 112.082 577.217 107.368 577.672 102.529C579.169 103.274 580.856 103.693 582.641 103.693C586.536 103.693 589.966 101.698 591.963 98.674C592.919 100.602 594.201 102.41 595.807 104.016C603.747 111.957 616.622 111.957 624.563 104.016C627.952 100.626 629.895 96.338 630.391 91.9181C632.371 92.4833 634.56 92.3386 636.547 91.3469C638.571 90.3369 640.019 88.6316 640.745 86.6648C648.371 88.9295 656.764 85.5063 660.5 78.1613C664.71 69.8845 661.413 59.762 653.136 55.5521C646.785 52.3214 639.346 53.5114 634.327 57.9801C631.354 53.2375 626.081 50.0841 620.07 50.0841C616.039 50.0841 612.339 51.503 609.442 53.8686C609.1 53.4535 608.734 53.0509 608.346 52.6626C602.202 46.5187 592.486 46.1236 585.883 51.4774C580.265 47.5316 573.05 45.9134 565.842 47.6145C556.609 49.7936 549.801 56.8502 547.501 65.4115C544.503 62.9384 541.038 61.3156 537.428 60.5431C537.326 59.4824 537.15 58.4161 536.899 57.35C533.893 44.6159 521.134 36.7294 508.4 39.7349C498.739 42.015 491.868 49.909 490.427 59.1469C487.949 57.9664 485.176 57.3057 482.249 57.3057C471.735 57.3057 463.212 65.8287 463.212 76.3423C463.212 86.856 471.735 95.379 482.249 95.379C486.388 95.379 490.218 94.0582 493.341 91.8151C494.906 93.7815 497.32 95.042 500.028 95.042C500.028 95.07 500.028 95.098 500.028 95.126V95.154C500.028 104.675 507.746 112.393 517.267 112.393C519.165 112.393 520.992 112.087 522.699 111.52C522.699 111.558 522.699 111.595 522.699 111.633C522.699 116.35 526.522 120.173 531.239 120.173C535.066 120.173 538.306 117.656 539.391 114.186Z" fill="white"/>
</svg>
