<svg width="45" height="40" viewBox="0 0 76 75" fill="none" xmlns="http://www.w3.org/2000/svg">
<path fill-rule="evenodd" clip-rule="evenodd" d="M4.40354 0.5H71.4393C73.6825 0.5 75.2427 2.20283 75.2427 4.16082V71.1966C75.2427 73.4398 73.6825 75 71.4393 75H4.40354C2.44556 75 0.600098 73.4398 0.600098 71.1966V4.16082C0.600098 2.20283 2.44556 0.5 4.40354 0.5Z" fill="white"/>
<path d="M34.196 52.9619C32.8719 55.4963 31.2321 57.6176 28.5964 58.8587C21.5628 62.1706 13.1758 57.7937 12.0481 50.124C11.2705 44.8354 13.8039 40.5011 17.4456 38.4093C17.5121 38.3711 17.5652 38.3094 17.691 38.2018C17.4504 38.0892 17.2522 37.989 17.0484 37.9021C11.1073 35.367 8.38341 28.2377 11.11 22.3565C13.8831 16.375 21.1019 13.8046 26.9059 16.7406C28.6654 17.6307 30.0615 18.9956 31.2307 20.5202C33.3324 23.2608 35.2852 26.1157 37.2957 28.9261C37.4942 29.2034 37.6613 29.5032 37.9037 29.8892C38.1048 29.5917 38.2668 29.3641 38.4166 29.1287C40.6997 25.5385 43.0994 22.0496 46.0391 18.9354C50.5943 14.1095 58.7103 14.471 63.1425 19.8081C68.0983 25.7757 65.8272 34.9941 58.6571 37.959C58.4885 38.0287 58.321 38.101 58.0812 38.2025C58.2184 38.3167 58.2994 38.4029 58.3968 38.4623C62.5716 41.0077 64.6685 46.0086 63.5855 50.8434C62.5026 55.6779 58.4125 59.4235 53.5418 59.874C48.8723 60.306 45.0899 58.7032 42.528 54.6394C40.6723 51.6958 39.4224 48.4714 38.2323 45.2218C38.1341 44.9535 38.0349 44.6855 37.9553 44.4692C36.7108 47.2851 35.4677 50.0978 34.196 52.9619ZM33.8313 41.8959C34.1014 41.0645 34.3715 40.233 34.682 39.2773C29.924 39.8357 25.3348 40.3137 20.9364 41.8171C20.2742 42.0435 19.6003 42.3695 19.0656 42.8112C16.8821 44.615 16.0376 46.9779 16.6066 49.7361C17.1763 52.498 18.909 54.3337 21.6096 55.1374C24.9122 56.1203 28.1048 54.8343 29.7075 51.6013C31.2477 48.4942 32.4467 45.2179 33.8313 41.8959ZM51.7497 40.9195C48.2624 40.1477 44.7382 39.6383 41.072 39.3141C41.4291 40.3984 41.7246 41.3515 42.0559 42.2921C43.2296 45.6243 44.4187 48.9543 46.2312 52.0085C47.8003 54.6525 50.4886 55.8421 53.5017 55.2993C56.6304 54.7357 59.0395 52.0424 59.2913 48.8267C59.5411 45.6363 57.7368 42.8451 54.6855 41.7692C53.7676 41.4456 52.8142 41.2228 51.7497 40.9195ZM60.8783 29.4486C61.8749 26.1221 60.6148 22.7961 57.7389 21.0786C55.4819 19.7307 51.5853 19.3392 49.1002 22.3579C47.1243 24.7581 45.287 27.2748 43.4447 29.7813C42.6411 30.8748 41.979 32.0724 41.2553 33.2184C41.3784 33.3069 41.4159 33.3559 41.4594 33.362C45.7776 33.9739 50.1042 34.4478 54.4786 34.211C57.6106 34.0415 59.7081 32.4733 60.8783 29.4486ZM16.2909 22.6228C15.294 23.7826 14.7714 25.1359 14.6227 26.65C14.3128 29.8044 16.5388 34.0706 21.4861 34.2314C25.0879 34.3485 28.6583 34.0997 32.2238 33.6559C32.9921 33.5602 33.7588 33.4506 34.6601 33.3294C33.8924 32.1135 33.2362 31.0343 32.541 29.9808C30.694 27.1823 28.8606 24.3616 26.4139 22.0383C25.6915 21.3523 24.7758 20.7317 23.8371 20.4377C20.9431 19.5313 18.4346 20.3346 16.2909 22.6228Z" fill="#E82E5D"/>
</svg>
