<svg width="23" height="18" viewBox="0 0 23 18" fill="none" xmlns="http://www.w3.org/2000/svg">
<path d="M2.64145 0.884558C2.35088 1.17513 2.35088 1.64625 2.64145 1.93683L18.4867 17.782C18.7772 18.0726 19.2483 18.0726 19.5389 17.782C19.8295 17.4915 19.8295 17.0203 19.5389 16.7298L3.69372 0.884558C3.40315 0.593982 2.93203 0.593982 2.64145 0.884558Z" fill="black"/>
<path d="M0.333496 9.24154C0.333496 8.61096 1.59683 6.76189 3.63114 5.09657L4.66272 6.17583C4.60176 6.22496 4.54139 6.27441 4.48163 6.32413C3.57821 7.0758 2.85943 7.85364 2.37934 8.49041C2.13815 8.81031 1.97387 9.07256 1.87739 9.25936C1.8611 9.2909 1.84805 9.31774 1.83769 9.34011L1.83956 9.34801C1.85683 9.41987 1.88748 9.51633 1.93821 9.63731C2.04073 9.88177 2.20806 10.1857 2.45059 10.5335C2.9359 11.2297 3.66523 12.0202 4.58819 12.7647C6.44942 14.2662 8.91994 15.4421 11.4945 15.4421C12.1187 15.4421 12.7301 15.3691 13.3232 15.2365L14.495 16.4625C13.5482 16.7578 12.5423 16.9302 11.4945 16.9302C5.46742 16.9302 0.333496 11.4737 0.333496 9.24154Z" fill="black"/>
<path d="M7.27811 9.73759C7.27811 9.47987 7.30123 9.22755 7.34551 8.98259L12.0612 13.9162C11.8758 13.9411 11.6867 13.954 11.4945 13.954C9.16584 13.954 7.27811 12.0662 7.27811 9.73759Z" fill="black"/>
<path d="M10.4783 5.64449L15.5376 10.9376C15.6503 10.5573 15.7108 10.1545 15.7108 9.73759C15.7108 7.40895 13.8231 5.52122 11.4945 5.52122C11.1441 5.52122 10.8037 5.56395 10.4783 5.64449Z" fill="black"/>
<path d="M18.107 12.7101C17.9493 12.8481 17.7868 12.9836 17.6196 13.1158L18.6518 14.1958C20.8227 12.4443 22.1594 10.3068 22.1594 9.24154C22.1594 7.50539 17.2735 2.04891 11.2465 2.04891C9.99855 2.04891 8.79957 2.30409 7.68275 2.7198L8.8181 3.90761C9.60313 3.67228 10.4177 3.53704 11.2465 3.53704C13.8176 3.53704 16.2272 4.71002 18.033 6.15585C18.9285 6.87278 19.6333 7.62417 20.1003 8.26327C20.3343 8.58346 20.4924 8.85332 20.5863 9.057C20.6369 9.16682 20.6585 9.23497 20.6673 9.26596C20.6594 9.31094 20.636 9.41586 20.567 9.58809C20.4722 9.82465 20.3172 10.1238 20.0929 10.469C19.6442 11.1593 18.9686 11.956 18.107 12.7101Z" fill="black"/>
</svg>
