<svg width="29" height="28" viewBox="0 0 29 28" fill="none" xmlns="http://www.w3.org/2000/svg">
<path d="M20.6751 11.4187C20.6751 11.4187 20.6795 11.4187 20.6751 11.4144C20.6036 11.2216 20.4855 11.0496 20.3313 10.9137C20.177 10.7778 19.9915 10.6822 19.7913 10.6356C19.5071 10.5868 19.2148 10.6233 18.9513 10.7406C18.8422 10.8317 18.7198 10.9055 18.5882 10.9594C18.0063 11.1912 17.2013 11.3225 16.8732 10.7712C16.637 10.3819 16.9388 9.43249 17.5295 8.21624C16.9038 9.22686 16.0245 10.3556 14.922 9.88749C14.2307 9.58999 14.5063 8.30374 14.607 8.06749C13.4957 10.1587 12.122 10.22 11.5226 9.84374C11.0632 9.55499 11.3126 8.39124 11.4701 8.06749C11.0632 8.84186 10.4026 9.86124 9.21695 9.84374C8.18883 9.82624 8.55195 8.31249 8.72695 7.84436C8.35945 8.63186 8.1582 9.16561 7.93945 9.51999C8.06899 10.1132 8.16249 10.7136 8.21945 11.3181C8.30258 13.7156 8.74883 15.4262 9.69383 16.4719C10.1027 16.8877 10.5944 17.2128 11.1371 17.4261C11.6798 17.6394 12.2613 17.7361 12.8438 17.71H12.8745C13.0582 18.3225 13.2638 18.8737 13.1501 19.2587C13.3363 19.4718 13.4911 19.7105 13.6095 19.9675L13.5876 19.9981C13.7422 20.121 13.864 20.2804 13.942 20.4619C14.0048 20.3631 14.0734 20.2681 14.1476 20.1775C14.2657 20.0287 14.572 19.8581 14.7557 19.95C15.6621 19.5573 16.4171 18.882 16.9082 18.025L16.9038 18.0206C16.7044 17.5145 16.562 16.9877 16.4795 16.45C17.3153 15.7954 17.9642 14.9323 18.3607 13.9475C18.5252 14.0962 18.7234 14.2028 18.9382 14.2581C19.8176 14.455 20.5613 13.6281 20.7626 12.7444C20.8664 12.3037 20.8359 11.842 20.6751 11.4187Z" fill="#FFD2C0"/>
<path d="M8.72681 7.8443C8.35931 8.6318 8.15806 9.16555 7.93931 9.51993C7.86983 9.63888 7.78446 9.7478 7.68556 9.84368C7.56492 9.95437 7.41764 10.0319 7.2581 10.0687C7.09856 10.1054 6.93221 10.1002 6.7753 10.0535C6.61838 10.0067 6.47627 9.92013 6.36282 9.80208C6.24938 9.68403 6.16849 9.53858 6.12806 9.37993C5.98368 8.55743 6.15431 7.94493 6.99431 5.96305C7.92181 3.77118 11.1856 0.472426 15.3068 1.20305C19.5462 1.44805 21.3268 5.80118 21.4318 7.43743C21.5718 9.49368 21.2743 10.4737 20.6749 11.4143C20.6035 11.2216 20.4853 11.0495 20.3311 10.9136C20.1769 10.7777 19.9914 10.6822 19.7912 10.6356C19.507 10.5867 19.2146 10.6233 18.9512 10.7406C18.8203 10.7958 18.698 10.8694 18.5881 10.9593C18.0062 11.1912 17.2012 11.3224 16.8731 10.7712C16.6368 10.3818 16.9387 9.43243 17.5293 8.21618C16.9037 9.2268 16.0243 10.3556 14.9218 9.88743C14.2306 9.58993 14.5062 8.30368 14.6068 8.06743C13.4956 10.1587 12.1218 10.2199 11.5224 9.84368C11.0631 9.55493 11.3124 8.39118 11.4699 8.06743C11.0631 8.8418 10.4024 9.86118 9.21681 9.84368C8.18868 9.82618 8.55181 8.31243 8.72681 7.8443Z" fill="#F45A40"/>
<path d="M21.992 23.8132C21.6027 22.0544 19.7652 20.3919 17.8839 19.4338C17.6693 18.8466 17.3936 18.2835 17.0614 17.7538C17.0614 17.7538 17.0089 17.8588 16.9083 18.025C16.4172 18.8821 15.6622 19.5574 14.7558 19.95C14.572 19.8582 14.2658 20.0288 14.1477 20.1775C14.0735 20.2682 14.0049 20.3631 13.942 20.4619C13.8641 20.2804 13.7423 20.1211 13.5877 19.9982L13.6095 19.9675C13.4911 19.7105 13.3364 19.4718 13.1502 19.2588C13.0207 19.1231 12.8735 19.0053 12.7127 18.9088C12.4211 19.2345 12.2006 19.6175 12.0652 20.0332H12.0608C10.6214 20.6938 8.08391 22.0063 7.03391 24.1282C6.71016 24.7713 6.72766 25.3532 7.31829 25.7688C8.07954 26.2982 9.40516 26.7575 11.772 26.8888C12.192 26.9063 12.6427 26.9194 13.1327 26.9194C17.3458 26.9194 20.0189 25.7513 20.8152 25.2657C21.3445 24.9419 22.1495 24.5132 21.992 23.8132Z" fill="#E0D9D5"/>
<path d="M13.22 19.95C12.5025 20.755 11.8331 22.33 11.6187 22.2732C11.4175 22.225 11.8375 20.685 11.9556 20.3657C11.9862 20.265 12.0212 20.1557 12.065 20.0332C12.2004 19.6175 12.4209 19.2345 12.7125 18.9088C12.8733 19.0053 13.0205 19.1231 13.15 19.2588C13.3362 19.4718 13.4909 19.7105 13.6093 19.9675L13.5875 19.9982C13.43 19.88 13.29 19.8757 13.22 19.95ZM17.8837 19.4338C17.478 20.4224 16.9232 21.3431 16.2387 22.1638C16.207 22.1946 16.1683 22.2171 16.1259 22.2294C16.0835 22.2416 16.0387 22.2433 15.9955 22.2342C15.9523 22.2252 15.912 22.2056 15.8781 22.1773C15.8442 22.149 15.8178 22.1128 15.8012 22.0719C15.56 21.3491 15.234 20.6574 14.83 20.0113C14.8105 19.9851 14.785 19.9641 14.7556 19.95C15.662 19.5574 16.417 18.8821 16.9081 18.025C17.0087 17.8588 17.0612 17.7538 17.0612 17.7538C17.3934 18.2835 17.6691 18.8466 17.8837 19.4338Z" fill="white"/>
<path d="M14.9235 10.7713V11.1344C14.9229 11.2421 14.8799 11.3453 14.8037 11.4214C14.7275 11.4976 14.6243 11.5407 14.5166 11.5413H14.3941C14.2864 11.5407 14.1832 11.4976 14.107 11.4214C14.0309 11.3453 13.9878 11.2421 13.9872 11.1344V10.7713C13.9871 10.7178 13.9976 10.6648 14.018 10.6154C14.0384 10.566 14.0683 10.5211 14.1062 10.4833C14.144 10.4455 14.1889 10.4155 14.2383 10.3951C14.2877 10.3747 14.3407 10.3643 14.3941 10.3644H14.5166C14.5701 10.3643 14.623 10.3747 14.6725 10.3951C14.7219 10.4155 14.7668 10.4455 14.8046 10.4833C14.8424 10.5211 14.8723 10.566 14.8928 10.6154C14.9132 10.6648 14.9236 10.7178 14.9235 10.7713ZM10.0305 10.7756V11.1388C10.0299 11.2465 9.98686 11.3496 9.91068 11.4258C9.8345 11.502 9.73135 11.5451 9.62361 11.5456H9.50111C9.39338 11.5451 9.29022 11.502 9.21405 11.4258C9.13787 11.3496 9.09481 11.2465 9.09424 11.1388V10.7756C9.09412 10.7222 9.10457 10.6692 9.12498 10.6198C9.14538 10.5704 9.17535 10.5255 9.21315 10.4877C9.25096 10.4499 9.29586 10.4199 9.34527 10.3995C9.39469 10.3791 9.44765 10.3686 9.50111 10.3688H9.62361C9.67708 10.3686 9.73004 10.3791 9.77946 10.3995C9.82887 10.4199 9.87377 10.4499 9.91158 10.4877C9.94938 10.5255 9.97935 10.5704 9.99975 10.6198C10.0202 10.6692 10.0306 10.7222 10.0305 10.7756Z" fill="#6B3434"/>
<path d="M13.6502 10.5875C13.5912 10.584 13.5359 10.5577 13.4959 10.5142C13.4559 10.4707 13.4344 10.4134 13.4358 10.3543C13.4391 10.2652 13.4696 10.1792 13.5232 10.1079C13.5768 10.0366 13.6508 9.98333 13.7355 9.95529C13.9727 9.87478 14.2262 9.85469 14.4731 9.89686C14.72 9.93903 14.9525 10.0421 15.1495 10.1968C15.172 10.2161 15.1903 10.2397 15.2034 10.2663C15.2165 10.2929 15.224 10.3218 15.2256 10.3514C15.2271 10.381 15.2226 10.4105 15.2124 10.4383C15.2022 10.4661 15.1865 10.4916 15.1661 10.5131C15.1458 10.5346 15.1213 10.5518 15.0941 10.5636C15.0669 10.5753 15.0376 10.5815 15.008 10.5816C14.9784 10.5817 14.9491 10.5758 14.9218 10.5643C14.8945 10.5527 14.8699 10.5358 14.8494 10.5144C14.6455 10.3642 14.3943 10.2928 14.1419 10.3132C14.0449 10.3084 13.9486 10.3331 13.8659 10.384C13.8659 10.4118 13.8603 10.4393 13.8493 10.4648C13.8383 10.4904 13.8222 10.5133 13.802 10.5324C13.7818 10.5515 13.7579 10.5662 13.7318 10.5757C13.7057 10.5851 13.6779 10.5892 13.6502 10.5875ZM8.75938 10.5932C8.70035 10.5898 8.64496 10.5635 8.60494 10.52C8.56493 10.4765 8.54343 10.4191 8.545 10.36C8.5483 10.2709 8.57872 10.185 8.6322 10.1137C8.68568 10.0424 8.75967 9.98909 8.84425 9.96098C9.08109 9.88034 9.3343 9.86003 9.58097 9.90189C9.82764 9.94375 10.06 10.0465 10.2569 10.2007C10.2991 10.2406 10.3237 10.2956 10.3254 10.3536C10.327 10.4116 10.3055 10.4679 10.2657 10.51C10.2258 10.5522 10.1709 10.5768 10.1128 10.5785C10.0548 10.5801 9.99856 10.5587 9.95638 10.5188C9.75278 10.3688 9.50189 10.2974 9.24982 10.3175C9.1526 10.3127 9.05619 10.3374 8.97332 10.3884C8.97353 10.4162 8.96807 10.4436 8.95728 10.4692C8.94649 10.4947 8.93058 10.5178 8.91055 10.537C8.89051 10.5562 8.86676 10.571 8.84077 10.5807C8.81477 10.5904 8.78707 10.5946 8.75938 10.5932ZM14.7619 13.0594C14.787 13.0594 14.8115 13.0519 14.8324 13.038C14.8532 13.024 14.8695 13.0042 14.8791 12.981C14.8887 12.9579 14.8912 12.9323 14.8863 12.9077C14.8814 12.8831 14.8693 12.8605 14.8516 12.8428C14.8338 12.825 14.8112 12.8129 14.7866 12.808C14.762 12.8031 14.7365 12.8057 14.7133 12.8153C14.6901 12.8249 14.6703 12.8411 14.6564 12.862C14.6424 12.8829 14.635 12.9074 14.635 12.9325C14.635 12.9661 14.6484 12.9984 14.6722 13.0222C14.696 13.046 14.7282 13.0594 14.7619 13.0594ZM12.7104 14.3522C12.686 14.3371 12.6588 14.327 12.6304 14.3225C12.602 14.3179 12.573 14.319 12.5451 14.3257C12.5171 14.3323 12.4908 14.3445 12.4675 14.3613C12.4442 14.3782 12.4245 14.3994 12.4094 14.4239C12.3519 14.5045 12.2752 14.5694 12.1863 14.613C12.0974 14.6565 11.9991 14.6772 11.9002 14.6733C11.8444 14.6796 11.7879 14.6733 11.7349 14.6548C11.6819 14.6363 11.6337 14.6062 11.5939 14.5665C11.5792 14.5412 11.5596 14.519 11.5361 14.5014C11.5127 14.4838 11.486 14.471 11.4575 14.464C11.429 14.4569 11.3995 14.4556 11.3705 14.4602C11.3415 14.4648 11.3138 14.4751 11.2889 14.4906C11.264 14.5062 11.2425 14.5265 11.2257 14.5505C11.2088 14.5745 11.197 14.6017 11.1908 14.6303C11.1846 14.659 11.1843 14.6886 11.1898 14.7174C11.1954 14.7462 11.2066 14.7736 11.2229 14.798C11.3004 14.9029 11.4031 14.9866 11.5214 15.0413C11.6398 15.0959 11.7701 15.1199 11.9002 15.1108H11.9037C12.0773 15.1149 12.249 15.075 12.4031 14.9949C12.5571 14.9148 12.6884 14.7971 12.7848 14.6527C12.7997 14.6281 12.8096 14.6008 12.8139 14.5724C12.8182 14.544 12.8169 14.5149 12.81 14.487C12.803 14.4591 12.7907 14.4328 12.7736 14.4097C12.7565 14.3866 12.7351 14.367 12.7104 14.3522ZM11.8044 13.4028C11.8747 13.4026 11.9444 13.3894 12.01 13.3639C12.0377 13.3542 12.0631 13.339 12.0848 13.3193C12.1065 13.2995 12.124 13.2757 12.1363 13.249C12.1486 13.2224 12.1554 13.1936 12.1563 13.1643C12.1572 13.1349 12.1522 13.1058 12.1416 13.0784C12.1311 13.0511 12.1151 13.0261 12.0946 13.0051C12.0742 12.984 12.0498 12.9673 12.0228 12.9559C11.9958 12.9445 11.9667 12.9386 11.9374 12.9387C11.9081 12.9387 11.8791 12.9446 11.8521 12.9561C11.835 12.9629 11.8166 12.966 11.7982 12.9653C11.7798 12.9645 11.7618 12.9599 11.7453 12.9517C11.7172 12.9386 11.6931 12.918 11.6758 12.8922C11.6835 12.8377 11.6704 12.7823 11.639 12.7371C11.6077 12.6918 11.5605 12.66 11.5068 12.648C11.4531 12.6361 11.3968 12.6448 11.3492 12.6724C11.3016 12.7001 11.2662 12.7447 11.2501 12.7973C11.2311 12.8777 11.235 12.9618 11.2616 13.04C11.2881 13.1182 11.3361 13.1874 11.4001 13.2396C11.5092 13.3434 11.6538 13.4018 11.8044 13.4028Z" fill="#6B3434"/>
<path d="M22.2058 23.7645C21.7736 21.8225 19.7221 20.1473 18.0622 19.2793C17.8448 18.7039 17.5701 18.1518 17.2424 17.6312C17.2397 17.6269 17.2354 17.6247 17.2323 17.6207C17.2231 17.6093 17.2129 17.5987 17.2017 17.5892C17.1909 17.5792 17.1792 17.5703 17.1667 17.5625C17.1629 17.5594 17.159 17.5565 17.1549 17.5538C17.1473 17.5513 17.1395 17.5493 17.1317 17.5477C17.1175 17.5423 17.1029 17.5384 17.0879 17.5359C17.0754 17.5348 17.0628 17.5348 17.0503 17.5359C17.0356 17.5364 17.0209 17.5385 17.0066 17.542C16.9961 17.545 16.9864 17.5485 16.9764 17.5525C16.863 17.2233 16.7772 16.8853 16.72 16.5419C17.4645 15.9327 18.0589 15.1604 18.4573 14.2848C18.5899 14.3725 18.7372 14.4356 18.8922 14.4712C19.9124 14.6969 20.7524 13.7965 20.9773 12.7929C21.0822 12.3449 21.0623 11.8768 20.92 11.4393C21.4796 10.5267 21.795 9.50992 21.655 7.42174C21.5482 5.86249 19.7869 1.24424 15.3467 0.987862C11.232 0.257237 7.81118 3.47461 6.79312 5.8778C5.97018 7.81942 5.7545 8.51986 5.90937 9.41586C5.9383 9.59538 6.01427 9.76404 6.12954 9.90466C6.24481 10.0453 6.39527 10.1529 6.56562 10.2165C6.77376 10.2924 6.99789 10.3136 7.21658 10.2782C7.43527 10.2427 7.6412 10.1517 7.81468 10.0139C7.90218 10.486 7.98968 11.1217 8.00018 11.3264C8.08768 13.8797 8.57506 15.561 9.53143 16.6202C9.94409 17.0431 10.439 17.377 10.9856 17.6013C11.5323 17.8256 12.1191 17.9355 12.7099 17.9244L12.7326 18C12.8196 18.2607 12.888 18.5273 12.9374 18.7976C12.9011 18.7727 12.8647 18.7486 12.8289 18.7254C12.7863 18.6981 12.7356 18.6863 12.6853 18.6921C12.6351 18.6979 12.5884 18.721 12.5532 18.7574C12.258 19.0815 12.0319 19.4625 11.8887 19.8769C9.27768 21.0875 7.62175 22.4459 6.83687 24.0305C6.32981 25.0512 6.74937 25.6362 7.19475 25.9472C8.33225 26.7378 10.3299 27.1385 13.1338 27.1385C17.1089 27.1385 19.905 26.0785 20.9318 25.452L21.0556 25.375C21.5846 25.0543 22.3865 24.5665 22.2058 23.7645ZM17.0647 18.1851C17.2908 18.5841 17.4867 18.9994 17.651 19.4276C17.259 20.3598 16.7311 21.2288 16.0843 22.0062C16.0787 22.0119 16.0718 22.0162 16.0642 22.0187C16.0566 22.0212 16.0485 22.0219 16.0406 22.0207C16.0326 22.0189 16.0252 22.0152 16.0191 22.0099C16.013 22.0045 16.0083 21.9977 16.0056 21.99C15.9539 21.8645 15.9023 21.7319 15.8489 21.5963C15.6563 21.054 15.4087 20.5329 15.11 20.041C15.9212 19.6158 16.5981 18.9732 17.0647 18.1851ZM6.72531 9.80786C6.62549 9.77168 6.53722 9.70934 6.46973 9.62738C6.40223 9.54542 6.35799 9.44683 6.34162 9.34192C6.21037 8.58855 6.35518 8.03467 7.19693 6.04842C8.15943 3.77342 11.3926 0.730174 15.2959 1.42142C19.4723 1.66424 21.1182 5.98849 21.2153 7.45192C21.3356 9.25968 21.1169 10.1828 20.6781 10.983C20.4785 10.6981 20.1797 10.498 19.8402 10.4221C19.7466 10.4027 19.6511 10.3938 19.5554 10.3954C19.8688 9.92514 20.1105 9.41084 20.2725 8.86942C20.2897 8.81434 20.2845 8.75467 20.2579 8.70342C20.2314 8.65218 20.1856 8.61351 20.1307 8.59584C20.0757 8.57818 20.016 8.58295 19.9646 8.60912C19.9131 8.63529 19.8741 8.68073 19.856 8.73555C19.6804 9.42662 19.3216 10.0575 18.8174 10.5617C18.7 10.616 18.5894 10.6837 18.4875 10.7634C18.2687 10.8509 17.3618 11.1645 17.0595 10.6605C16.9807 10.5293 16.8876 10.0371 17.7249 8.31249C17.7498 8.26199 17.7543 8.20384 17.7374 8.15013C17.7205 8.09642 17.6836 8.05129 17.6343 8.02412C17.585 7.99696 17.5271 7.98985 17.4727 8.00429C17.4183 8.01872 17.3715 8.05358 17.3421 8.10161C16.4671 9.51211 15.7487 9.99992 15.0094 9.68536C14.7495 9.57467 14.6909 9.22555 14.6874 8.95167C14.6836 8.68039 14.7245 8.41034 14.8086 8.15236C14.8119 8.14123 14.8143 8.1298 14.8156 8.11824C14.8201 8.10403 14.823 8.08935 14.8243 8.07449C14.8245 8.05978 14.8231 8.04511 14.8199 8.03074C14.8187 8.01723 14.816 8.00389 14.8121 7.99092C14.8066 7.97763 14.7998 7.96488 14.7919 7.95286C14.7856 7.94102 14.7783 7.92975 14.7701 7.91917C14.7595 7.90855 14.7479 7.89903 14.7355 7.89074C14.728 7.88492 14.7201 7.87966 14.7119 7.87499C14.7088 7.87499 14.7057 7.87499 14.7027 7.87236C14.6996 7.86974 14.6979 7.86842 14.6948 7.86711C14.6835 7.86334 14.6717 7.86085 14.6598 7.85967C14.6466 7.85547 14.6329 7.85254 14.6191 7.85092C14.6044 7.85123 14.5898 7.85284 14.5754 7.85574C14.5624 7.85712 14.5495 7.8596 14.5369 7.86317C14.5237 7.86857 14.5111 7.87531 14.4992 7.8833C14.4872 7.8895 14.4758 7.89683 14.4651 7.90517C14.4546 7.91595 14.4451 7.92767 14.4367 7.94017C14.4291 7.94804 14.4222 7.95653 14.4161 7.96555C13.7533 9.2133 13.0502 9.62805 12.5786 9.75274C12.4239 9.80065 12.2612 9.81713 12.1 9.8012C11.9389 9.78527 11.7825 9.73726 11.6402 9.65999C11.3484 9.47799 11.5159 8.48224 11.6708 8.16374C11.6757 8.15055 11.6794 8.13693 11.6817 8.12305C11.6864 8.10998 11.6897 8.0965 11.6918 8.0828C11.6916 8.06942 11.6902 8.05608 11.6874 8.04299C11.687 8.02822 11.685 8.01355 11.6813 7.99924C11.6763 7.98696 11.67 7.97523 11.6625 7.96424C11.6565 7.95085 11.6492 7.9381 11.6406 7.92617C11.6305 7.91634 11.6195 7.90741 11.6078 7.89949C11.5972 7.89013 11.5856 7.88191 11.5732 7.87499H11.5697H11.5676C11.5534 7.8696 11.5387 7.86565 11.5238 7.86317C11.5121 7.85929 11.5001 7.85622 11.4879 7.85399C11.4698 7.85369 11.4518 7.8556 11.4341 7.85967C11.4244 7.86046 11.4148 7.86192 11.4052 7.86405C11.3803 7.87672 11.3557 7.89029 11.3317 7.90474C11.3197 7.91627 11.3092 7.92919 11.3002 7.94324C11.2923 7.95153 11.2849 7.96046 11.2784 7.96992C10.8715 8.74474 10.2721 9.63242 9.24881 9.63242H9.22256C9.14976 9.63949 9.07642 9.62637 9.01059 9.5945C8.94475 9.56262 8.88898 9.51323 8.84937 9.45174C8.60437 9.06411 8.83406 8.14667 8.96312 7.86361C8.96781 7.84937 8.97118 7.83472 8.97318 7.81986C8.97749 7.80676 8.98056 7.79328 8.98237 7.77961C8.98165 7.76588 8.9796 7.75226 8.97625 7.73892C8.97511 7.72417 8.97277 7.70954 8.96925 7.69517C8.96325 7.68307 8.95623 7.67151 8.94825 7.66061C8.94202 7.64753 8.93455 7.63508 8.92593 7.62342C8.91593 7.61472 8.90525 7.60682 8.894 7.5998C8.88286 7.58952 8.87069 7.58043 8.85768 7.57267C8.84133 7.56663 8.82428 7.56266 8.80693 7.56086C8.79659 7.55786 8.78607 7.55552 8.77543 7.55386C8.75392 7.55375 8.73251 7.55699 8.712 7.56349C8.70543 7.56349 8.69887 7.56349 8.69275 7.56655C8.67718 7.57373 8.6625 7.58268 8.649 7.59324C8.63959 7.59816 8.63053 7.60372 8.62187 7.60986C8.6109 7.62189 8.60108 7.63493 8.59256 7.6488C8.58454 7.65801 8.57723 7.66781 8.57068 7.67811V7.68074C8.418 8.00317 8.29287 8.28536 8.18393 8.53036C8.03991 8.94427 7.82804 9.33135 7.557 9.67574C7.44119 9.76694 7.30395 9.82697 7.15836 9.8501C7.01277 9.87323 6.86368 9.85869 6.72531 9.80786ZM8.43943 11.3089C8.38347 10.7181 8.29333 10.131 8.1695 9.55061C8.22287 9.45655 8.27756 9.35155 8.33181 9.23824C8.35058 9.39343 8.40075 9.54318 8.47925 9.67836C8.55775 9.80111 8.66703 9.90116 8.79621 9.96855C8.92539 10.0359 9.06997 10.0683 9.21556 10.0625H9.24881C9.60036 10.054 9.9453 9.96507 10.2571 9.80255C10.569 9.64003 10.8395 9.40822 11.0478 9.12492C11.0274 9.29348 11.0494 9.46446 11.1119 9.62232C11.1744 9.78018 11.2754 9.91991 11.4057 10.0288C11.6433 10.1714 11.9161 10.2446 12.1932 10.2401C12.3606 10.2395 12.5273 10.2169 12.6889 10.1732C13.3237 9.97385 13.8743 9.56926 14.2542 9.02299C14.2331 9.23853 14.2775 9.45544 14.3817 9.64534C14.4858 9.83525 14.6448 9.98932 14.8379 10.0874C15.1606 10.2118 15.5137 10.2341 15.8494 10.1514C16.1852 10.0687 16.4876 9.88497 16.7156 9.62499C16.4881 10.3814 16.5743 10.7025 16.6846 10.8854C16.7904 11.0491 16.9383 11.1813 17.1128 11.268C17.2873 11.3548 17.482 11.393 17.6764 11.3785C17.7772 11.3771 17.8778 11.3685 17.9774 11.3527C17.9544 11.4036 17.9518 11.4613 17.9701 11.5141C17.9883 11.5668 18.0261 11.6106 18.0756 11.6365C18.1251 11.6623 18.1826 11.6682 18.2363 11.6531C18.29 11.6379 18.3359 11.6027 18.3646 11.5548C18.4599 11.3983 18.5789 11.2576 18.7172 11.1374C18.8307 11.0855 18.9379 11.0206 19.0366 10.944C19.259 10.845 19.5051 10.8121 19.7457 10.8491C19.8738 10.8767 19.9949 10.9302 20.1016 11.0063C20.2082 11.0823 20.2983 11.1794 20.3661 11.2914C20.6026 11.7204 20.6675 12.2231 20.5477 12.698C20.3727 13.475 19.7261 14.2135 18.9854 14.045C18.8022 13.9932 18.6334 13.9001 18.4919 13.7729C18.4645 13.752 18.4327 13.7379 18.3989 13.7317C18.3651 13.7254 18.3302 13.7272 18.2973 13.7369C18.2643 13.7466 18.234 13.764 18.209 13.7876C18.184 13.8112 18.1649 13.8403 18.1532 13.8727C17.7193 14.9458 16.9723 15.8634 16.0095 16.506C15.9689 16.5309 15.9376 16.5685 15.9202 16.6128C15.9029 16.6572 15.9006 16.7061 15.9135 16.7519C15.9265 16.7978 15.9541 16.8381 15.9921 16.8669C16.0301 16.8956 16.0765 16.9111 16.1241 16.9111C16.1646 16.9113 16.2043 16.9001 16.2387 16.8787C16.2676 16.8612 16.2917 16.8402 16.3197 16.8223C16.4056 17.2217 16.5208 17.6141 16.6644 17.9965C16.2104 18.7567 15.5349 19.3599 14.7285 19.7255C14.6985 19.7157 14.6676 19.709 14.6362 19.7054H14.6336C14.5087 19.7137 14.3867 19.7468 14.2748 19.8029C14.1629 19.8591 14.0634 19.937 13.9821 20.0322C13.9742 20.0414 13.9637 20.0567 13.955 20.0672C13.914 20.0098 13.8685 19.9556 13.8189 19.9054C13.8157 19.8941 13.8115 19.8831 13.8062 19.8725C13.6926 19.6321 13.5506 19.4062 13.3832 19.1997C13.4051 18.7565 13.3305 18.3139 13.1644 17.9025C13.199 17.8985 13.2279 17.8959 13.2651 17.8911C13.6781 17.8285 14.0863 17.7372 14.4866 17.6177C14.5139 17.6089 14.5393 17.5947 14.5611 17.5761C14.583 17.5575 14.601 17.5348 14.6141 17.5092C14.6272 17.4836 14.6352 17.4557 14.6375 17.4271C14.6398 17.3984 14.6365 17.3696 14.6277 17.3423C14.6188 17.3149 14.6047 17.2896 14.5861 17.2677C14.5675 17.2458 14.5447 17.2278 14.5192 17.2147C14.4936 17.2016 14.4657 17.1936 14.4371 17.1913C14.4084 17.189 14.3796 17.1924 14.3522 17.2012C13.9755 17.3132 13.5915 17.399 13.2029 17.458C13.0851 17.4759 12.9663 17.4868 12.8472 17.4908C12.2953 17.5168 11.7441 17.4264 11.2294 17.2256C10.7147 17.0247 10.248 16.7178 9.85956 16.3249C8.98718 15.3615 8.523 13.7213 8.43943 11.3089ZM12.7497 19.1966C12.9351 19.3334 13.0919 19.5052 13.2112 19.7024C13.1525 19.7224 13.1 19.7572 13.0586 19.8034C12.669 20.2813 12.3253 20.7949 12.0322 21.3373C11.9714 21.4427 11.9053 21.556 11.8414 21.6628C11.9239 21.2444 12.0321 20.8315 12.1656 20.4264C12.2808 19.9833 12.479 19.5659 12.7497 19.1966ZM7.23062 24.2248C7.93062 22.8104 9.40368 21.5753 11.7001 20.4557C11.5689 20.8897 11.2368 22.0469 11.3965 22.3484C11.4362 22.4126 11.4967 22.4613 11.568 22.4862C11.5914 22.4925 11.6155 22.4957 11.6397 22.4958C11.8668 22.4958 12.0409 22.1965 12.4128 21.5574C12.687 21.0539 12.9999 20.5725 13.3486 20.1175C13.3924 20.114 13.542 20.2024 13.6886 20.4562C12.5741 22.3573 11.8552 24.464 11.575 26.6499C9.6815 26.5282 8.29068 26.1752 7.44718 25.5885C7.16018 25.3885 6.82812 25.0302 7.23062 24.2248ZM20.8294 25.0027L20.7043 25.0788C19.7177 25.6812 17.0131 26.701 13.1356 26.701C12.7418 26.701 12.3712 26.691 12.0121 26.6752C12.3003 24.4104 13.088 22.2378 14.3181 20.3144C14.4056 20.2055 14.6064 20.1215 14.6567 20.1469C14.986 20.6474 15.2495 21.1882 15.4407 21.756C15.495 21.8934 15.5475 22.0281 15.5996 22.155C15.6294 22.2291 15.6771 22.2948 15.7385 22.3461C15.7998 22.3973 15.8728 22.4327 15.9511 22.4489C16.0294 22.4651 16.1105 22.4618 16.1871 22.4391C16.2638 22.4165 16.3337 22.3752 16.3906 22.319C17.0505 21.5429 17.5913 20.673 17.9953 19.7378C19.5449 20.5791 21.3907 22.1134 21.7797 23.8586C21.8821 24.3189 21.4091 24.6492 20.8272 25.0027H20.8294Z" fill="#6B3434"/>
<path d="M18.9201 12.6C18.9355 12.6034 18.9512 12.6052 18.967 12.6052C19.0169 12.6052 19.0653 12.588 19.1041 12.5567C19.1429 12.5253 19.1699 12.4816 19.1805 12.4328C19.2185 12.3213 19.2929 12.2258 19.3918 12.1616C19.4907 12.0975 19.6082 12.0685 19.7256 12.0793C19.7545 12.0838 19.784 12.0823 19.8124 12.0752C19.8407 12.068 19.8673 12.0552 19.8907 12.0375C19.914 12.0199 19.9335 11.9977 19.9481 11.9724C19.9628 11.9471 19.9721 11.9191 19.9757 11.89C19.9793 11.861 19.9771 11.8315 19.9691 11.8034C19.9611 11.7753 19.9476 11.749 19.9293 11.7262C19.911 11.7034 19.8883 11.6845 19.8625 11.6706C19.8368 11.6567 19.8085 11.6481 19.7794 11.6453C19.5537 11.6203 19.3265 11.6765 19.1385 11.8037C18.9504 11.9309 18.8138 12.1209 18.753 12.3397C18.7407 12.3963 18.7513 12.4556 18.7827 12.5044C18.814 12.5532 18.8635 12.5876 18.9201 12.6ZM14.2175 13.9168C14.2426 13.9168 14.2671 13.9094 14.2879 13.8955C14.3088 13.8815 14.3251 13.8617 14.3347 13.8385C14.3443 13.8153 14.3468 13.7898 14.3419 13.7652C14.337 13.7406 14.3249 13.718 14.3072 13.7003C14.2894 13.6825 14.2668 13.6704 14.2422 13.6655C14.2176 13.6606 14.1921 13.6632 14.1689 13.6728C14.1457 13.6824 14.1259 13.6986 14.112 13.7195C14.098 13.7403 14.0906 13.7649 14.0906 13.79C14.0906 13.8236 14.104 13.8559 14.1277 13.8797C14.1515 13.9035 14.1838 13.9168 14.2175 13.9168ZM15.5343 12.1668C15.5594 12.1668 15.584 12.1594 15.6048 12.1455C15.6257 12.1315 15.642 12.1117 15.6516 12.0885C15.6612 12.0653 15.6637 12.0398 15.6588 12.0152C15.6539 11.9906 15.6418 11.968 15.624 11.9503C15.6063 11.9325 15.5837 11.9204 15.5591 11.9155C15.5345 11.9106 15.509 11.9132 15.4858 11.9228C15.4626 11.9324 15.4428 11.9486 15.4288 11.9695C15.4149 11.9903 15.4075 12.0149 15.4075 12.04C15.4075 12.0736 15.4208 12.1059 15.4446 12.1297C15.4684 12.1535 15.5007 12.1668 15.5343 12.1668ZM15.4075 13.7375C15.4336 13.7383 15.4594 13.7314 15.4815 13.7175C15.5037 13.7036 15.5212 13.6834 15.5318 13.6596C15.5424 13.6357 15.5456 13.6091 15.5411 13.5834C15.5365 13.5577 15.5244 13.5339 15.5062 13.5151C15.488 13.4963 15.4647 13.4833 15.4391 13.4779C15.4135 13.4725 15.3869 13.4748 15.3627 13.4846C15.3384 13.4944 15.3177 13.5112 15.303 13.5329C15.2884 13.5545 15.2806 13.5801 15.2806 13.6062C15.2802 13.6232 15.2832 13.6401 15.2893 13.6559C15.2955 13.6717 15.3048 13.6862 15.3166 13.6984C15.3284 13.7106 15.3425 13.7203 15.3581 13.727C15.3737 13.7338 15.3905 13.7373 15.4075 13.7375ZM13.8587 12.8056C13.8838 12.8056 13.9083 12.7982 13.9292 12.7842C13.9501 12.7703 13.9663 12.7505 13.9759 12.7273C13.9855 12.7041 13.988 12.6786 13.9831 12.654C13.9783 12.6294 13.9662 12.6067 13.9484 12.589C13.9307 12.5713 13.9081 12.5592 13.8835 12.5543C13.8589 12.5494 13.8333 12.5519 13.8102 12.5615C13.787 12.5711 13.7672 12.5874 13.7532 12.6082C13.7393 12.6291 13.7318 12.6536 13.7318 12.6787C13.7318 12.7124 13.7452 12.7446 13.769 12.7684C13.7928 12.7922 13.8251 12.8056 13.8587 12.8056ZM10.6781 12.4425C10.6614 12.4425 10.6449 12.4458 10.6295 12.4521C10.6141 12.4585 10.6002 12.4678 10.5884 12.4796C10.5766 12.4914 10.5672 12.5054 10.5609 12.5208C10.5545 12.5362 10.5512 12.5527 10.5512 12.5693C10.5512 12.586 10.5545 12.6025 10.5609 12.6179C10.5672 12.6333 10.5766 12.6473 10.5884 12.6591C10.6002 12.6708 10.6141 12.6802 10.6295 12.6866C10.6449 12.6929 10.6614 12.6962 10.6781 12.6962C10.7117 12.6962 10.744 12.6829 10.7678 12.6591C10.7916 12.6353 10.805 12.603 10.805 12.5693C10.805 12.5357 10.7916 12.5034 10.7678 12.4796C10.744 12.4558 10.7117 12.4425 10.6781 12.4425ZM10.3193 13.5537C10.2942 13.5537 10.2697 13.5612 10.2488 13.5751C10.228 13.589 10.2117 13.6089 10.2021 13.632C10.1925 13.6552 10.19 13.6807 10.1949 13.7053C10.1998 13.73 10.2119 13.7526 10.2296 13.7703C10.2474 13.7881 10.27 13.8001 10.2946 13.805C10.3192 13.8099 10.3447 13.8074 10.3679 13.7978C10.3911 13.7882 10.4109 13.7719 10.4248 13.7511C10.4388 13.7302 10.4462 13.7057 10.4462 13.6806C10.4462 13.6469 10.4328 13.6147 10.409 13.5909C10.3853 13.5671 10.353 13.5537 10.3193 13.5537ZM9.77246 12.6962C9.74757 12.6971 9.72349 12.7052 9.70321 12.7197C9.68292 12.7341 9.66734 12.7543 9.65841 12.7775C9.64947 12.8007 9.64758 12.8261 9.65296 12.8504C9.65833 12.8747 9.67075 12.8969 9.68866 12.9142C9.70656 12.9316 9.72916 12.9432 9.75365 12.9478C9.77813 12.9523 9.80342 12.9496 9.82635 12.9398C9.84928 12.9301 9.86884 12.9139 9.88259 12.8931C9.89635 12.8723 9.9037 12.848 9.90371 12.8231C9.90372 12.8061 9.9003 12.7892 9.89365 12.7735C9.887 12.7578 9.87727 12.7436 9.86502 12.7318C9.85277 12.72 9.83826 12.7107 9.82236 12.7046C9.80646 12.6985 9.78949 12.6956 9.77246 12.6962ZM9.12496 13.37C9.0948 13.3755 9.06755 13.3915 9.04793 13.4151C9.02831 13.4387 9.01757 13.4684 9.01757 13.499C9.01757 13.5297 9.02831 13.5594 9.04793 13.583C9.06755 13.6066 9.0948 13.6225 9.12496 13.6281C9.1439 13.6316 9.16337 13.6309 9.182 13.626C9.20064 13.6212 9.21797 13.6122 9.23277 13.5999C9.24758 13.5876 9.25949 13.5722 9.26766 13.5547C9.27584 13.5373 9.28007 13.5183 9.28007 13.499C9.28007 13.4798 9.27584 13.4608 9.26766 13.4433C9.25949 13.4259 9.24758 13.4105 9.23277 13.3981C9.21797 13.3858 9.20064 13.3769 9.182 13.372C9.16337 13.3672 9.1439 13.3665 9.12496 13.37ZM9.04184 12.1056C9.04184 12.0805 9.0344 12.056 9.02045 12.0351C9.00651 12.0142 8.9867 11.998 8.96351 11.9884C8.94033 11.9788 8.91482 11.9763 8.89021 11.9812C8.8656 11.9861 8.84299 11.9981 8.82525 12.0159C8.8075 12.0336 8.79542 12.0562 8.79052 12.0808C8.78563 12.1055 8.78814 12.131 8.79774 12.1541C8.80735 12.1773 8.82361 12.1971 8.84447 12.2111C8.86534 12.225 8.88987 12.2325 8.91496 12.2325C8.94861 12.2325 8.98088 12.2191 9.00468 12.1953C9.02847 12.1715 9.04184 12.1392 9.04184 12.1056ZM13.64 22.4262C13.579 22.4254 13.5192 22.4427 13.4682 22.476C13.4172 22.5093 13.3772 22.5571 13.3535 22.6132C13.3298 22.6694 13.3234 22.7313 13.335 22.7911C13.3467 22.8509 13.376 22.9059 13.4191 22.949C13.4622 22.9921 13.5171 23.0213 13.5769 23.033C13.6367 23.0447 13.6987 23.0383 13.7548 23.0145C13.811 22.9908 13.8587 22.9509 13.892 22.8999C13.9254 22.8488 13.9427 22.789 13.9418 22.7281C13.9417 22.6481 13.9099 22.5714 13.8533 22.5148C13.7967 22.4582 13.72 22.4263 13.64 22.4262ZM12.8743 24.6881C12.7939 24.6892 12.7171 24.722 12.6606 24.7793C12.6041 24.8366 12.5725 24.9139 12.5725 24.9943C12.5814 25.0687 12.6173 25.1372 12.6733 25.1869C12.7293 25.2366 12.8016 25.2641 12.8765 25.2641C12.9514 25.2641 13.0237 25.2366 13.0797 25.1869C13.1358 25.1372 13.1717 25.0687 13.1806 24.9943C13.1806 24.9131 13.1483 24.8352 13.0909 24.7778C13.0335 24.7204 12.9556 24.6881 12.8743 24.6881Z" fill="#6B3434"/>
</svg>
