<svg width="75" height="61" viewBox="0 0 75 61" fill="none" xmlns="http://www.w3.org/2000/svg">
<path d="M32.5591 50.6968C30.8084 54.0661 28.6283 56.8738 25.1269 58.5254C15.7788 62.9187 4.64697 57.105 3.16052 46.9311C2.13652 39.8953 5.5058 34.1477 10.3285 31.373C10.4276 31.3069 10.4937 31.2409 10.6588 31.1087C10.3285 30.9436 10.0642 30.8115 9.79998 30.7124C1.9053 27.3431 -1.6952 17.8959 1.9053 10.0673C5.57187 2.13956 15.1842 -1.29578 22.8807 2.60201C25.226 3.79117 27.0758 5.60793 28.6283 7.62289C31.403 11.2564 34.0125 15.0551 36.6881 18.7878C36.9524 19.1511 37.1836 19.5475 37.4809 20.076C37.7452 19.6796 37.9764 19.3823 38.1746 19.052C41.2135 14.2954 44.3846 9.63785 48.2824 5.50883C54.3273 -0.8994 65.0958 -0.403918 70.9755 6.66496C77.5489 14.5927 74.543 26.8146 65.0297 30.7784C64.7985 30.8775 64.5673 30.9766 64.27 31.1087C64.4682 31.2739 64.5673 31.373 64.6994 31.4391C70.2488 34.8083 73.0235 41.4478 71.6031 47.8891C70.1497 54.2973 64.7324 59.2852 58.2581 59.8797C52.0481 60.4413 47.0272 58.3272 43.6249 52.943C41.1475 49.0452 39.4959 44.751 37.9103 40.4238C37.7782 40.0605 37.6461 39.6971 37.547 39.4328C35.9284 43.1655 34.2768 46.8981 32.5591 50.6968ZM32.0967 35.9975C32.46 34.9074 32.8234 33.7843 33.2198 32.5291C26.9106 33.2558 20.7997 33.9165 14.986 35.8984C14.0942 36.1957 13.2023 36.6251 12.5086 37.2197C9.60179 39.598 8.47869 42.7361 9.23843 46.4026C9.99817 50.0692 12.3104 52.5136 15.8779 53.5706C20.2712 54.8919 24.4993 53.1742 26.6133 48.88C28.6613 44.751 30.2469 40.4238 32.0967 35.9975ZM55.8798 34.7092C51.2553 33.6852 46.5647 33.0246 41.709 32.5622C42.1715 34.0156 42.5679 35.2708 43.0303 36.526C44.5828 40.9523 46.1684 45.3786 48.5797 49.4416C50.6607 52.943 54.2282 54.5285 58.2251 53.8018C62.3871 53.0421 65.5913 49.4746 65.9216 45.2135C66.2519 40.9854 63.8736 37.2858 59.8106 35.8323C58.5554 35.4029 57.3002 35.1056 55.8798 34.7092ZM68.0026 19.4814C69.3239 15.0551 67.6392 10.6619 63.8406 8.38263C60.8346 6.5989 55.6816 6.07038 52.3784 10.0673C49.7689 13.2384 47.3245 16.6076 44.8801 19.9108C43.8231 21.3643 42.9312 22.9498 41.9733 24.4693C42.1384 24.6014 42.1715 24.6675 42.2375 24.6675C47.9851 25.4933 53.6997 26.1209 59.5133 25.7906C63.6424 25.5593 66.4501 23.4783 68.0026 19.4814ZM8.80901 10.3976C7.48773 11.9501 6.79405 13.7338 6.59586 15.7488C6.19948 19.9439 9.13934 25.5924 15.7127 25.8236C20.5024 25.9888 25.226 25.6584 29.9826 25.0639C31.0066 24.9317 32.0306 24.7996 33.2198 24.6344C32.1958 23.0159 31.3369 21.5955 30.412 20.1751C27.9677 16.4755 25.5233 12.7098 22.2861 9.63785C21.3282 8.71295 20.106 7.88715 18.8508 7.5238C14.986 6.30161 11.6498 7.35863 8.80901 10.3976Z" fill="#FFFDFD"/>
</svg>
