<svg width="28" height="28" viewBox="0 0 28 28" fill="none" xmlns="http://www.w3.org/2000/svg">
<path d="M21.8052 23.7562C21.1096 21.6956 20.0071 20.6412 17.6883 19.5518L17.6708 19.5387C17.6304 19.5951 17.585 19.6478 17.5352 19.6962C17.4333 19.8173 17.3121 19.9208 17.1764 20.0024L17.1808 20.0068C17.2106 20.155 17.1928 20.3089 17.1299 20.4464C17.0671 20.5838 16.9624 20.698 16.8308 20.7724C15.9519 21.2099 14.6026 21.3084 13.5452 21.3849C13.0581 21.4632 12.5625 21.4734 12.0726 21.4151C11.8429 21.3223 11.6594 21.1422 11.5623 20.9143C11.4652 20.6864 11.4624 20.4293 11.5546 20.1993C10.1721 20.7287 7.5077 21.7174 6.3527 24.0274C6.05957 24.6093 6.0727 25.1299 6.61082 25.5018C7.41582 26.0662 9.4852 26.8799 12.6308 26.8843C13.9295 26.8887 15.2262 26.7833 16.5071 26.5693C17.9785 26.3676 19.3997 25.8944 20.6983 25.1737C21.5296 24.6312 21.9671 24.2287 21.8052 23.7562Z" fill="#F9E5AF"/>
<path d="M14.6519 20.3613L14.6826 20.3438C14.801 20.5229 14.9629 20.669 15.1532 20.7685C15.3435 20.868 15.556 20.9175 15.7706 20.9125C16.1301 20.9669 16.4976 20.9183 16.8307 20.7725C17.8457 22.9775 17.9726 25.1563 16.4326 25.4231C16.3976 25.4275 16.3582 25.4363 16.3144 25.4406C15.2994 25.5631 13.1994 25.1737 12.7751 24.3906C12.3813 23.6556 12.7444 22.435 13.4969 21.4463C13.8164 21.0206 14.2071 20.6535 14.6519 20.3613Z" fill="#A3625D"/>
<path d="M18.2042 10.6356C18.0006 10.598 17.7913 10.6055 17.591 10.6577C17.3906 10.7099 17.2042 10.8054 17.0448 10.9375C17.0579 11.4756 16.7167 11.8562 16.2267 11.6418C14.9443 11.0071 13.8428 10.0591 13.0242 8.88558C12.0004 7.54683 11.2217 6.10746 10.6267 5.26746C9.18979 6.12002 8.14977 7.50776 7.73482 9.12621C7.71338 9.20014 7.69325 9.27146 7.67532 9.33971C7.55335 9.81677 7.50583 10.3098 7.53444 10.8014C7.56594 11.3977 7.60794 12.2167 7.67794 13.02C7.72142 13.5863 7.79443 14.15 7.89669 14.7087C8.16794 16.0737 9.98794 17.4606 11.4404 17.5481C11.7659 17.5659 12.0923 17.5557 12.4161 17.5175C12.6392 18.3618 12.8186 19.5037 12.3548 19.845C12.1002 19.989 11.832 20.1077 11.5542 20.1993C11.3967 20.8687 11.5367 21.2537 11.9742 21.4725C12.3329 21.6518 12.9979 21.4112 13.4967 21.4462C13.8161 21.0205 14.2069 20.6534 14.6517 20.3612L14.6823 20.3437C14.6008 20.1657 14.5612 19.9714 14.5665 19.7758C14.5718 19.5801 14.6219 19.3882 14.7129 19.215C14.5635 18.3607 14.7366 17.4814 15.1986 16.7475C15.1504 16.6067 15.1267 16.4587 15.1286 16.31C15.8681 15.6745 16.4342 14.8616 16.7736 13.9475C16.9381 14.0962 17.1363 14.2028 17.3511 14.2581C18.0336 14.4112 18.6329 13.9475 18.9611 13.3218L19.0136 13.2168C19.0844 13.0656 19.1387 12.9072 19.1754 12.7443C19.3723 11.865 19.0879 10.8325 18.2042 10.6356Z" fill="#FFBF94"/>
<path d="M19.0138 13.2475C18.9989 13.274 18.9813 13.2989 18.9613 13.3219C18.6332 13.9475 18.0338 14.4113 17.3513 14.2581C17.1365 14.2028 16.9384 14.0962 16.7738 13.9475C16.4344 14.8616 15.8684 15.6745 15.1288 16.31C15.1269 16.4588 15.1506 16.6068 15.1988 16.7475C14.7369 17.4814 14.5638 18.3607 14.7132 19.215C14.7397 19.3954 14.8113 19.5662 14.9214 19.7116C15.0316 19.8569 15.1767 19.972 15.3432 20.0463C15.6307 20.1834 15.9465 20.2509 16.265 20.2433C16.5835 20.2357 16.8957 20.1532 17.1763 20.0025C17.3119 19.9208 17.4332 19.8174 17.5351 19.6963C17.5849 19.6479 17.6303 19.5952 17.6707 19.5388C17.9482 19.1161 18.1316 18.6388 18.2086 18.1391C18.2856 17.6394 18.2543 17.1291 18.117 16.6425C18.2657 16.4424 18.3974 16.2302 18.5107 16.0081C18.9082 15.145 19.0812 14.1954 19.0138 13.2475ZM7.50321 10.2331C7.53821 10.7756 7.58196 11.9131 7.67821 13.02L7.63884 13.0244C5.51696 13.2956 4.90884 11.3181 5.10571 9.13063C5.30259 6.94313 7.56009 2.00375 10.1151 2.45875C12.342 3.93391e-06 16.6614 1.82307 17.8282 2.95313C20.42 5.4635 20.9957 10.6794 19.0138 13.2475V13.2169C19.0846 13.0657 19.1389 12.9072 19.1757 12.7444C19.3726 11.865 19.0882 10.8325 18.2045 10.6356C18.0009 10.598 17.7916 10.6056 17.5912 10.6578C17.3909 10.7099 17.2045 10.8054 17.0451 10.9375C17.0582 11.4756 16.717 11.8563 16.227 11.6419C14.9446 11.0071 13.8431 10.0591 13.0245 8.88563C12.0007 7.54688 11.222 6.1075 10.627 5.2675C9.19006 6.12007 8.15004 7.50781 7.73509 9.12625C7.62544 9.48769 7.54785 9.85808 7.50321 10.2331Z" fill="#A3625D"/>
<path d="M17.3688 19.8669C17.3688 20.3044 16.9663 21.1663 15.7369 20.9475C14.1138 20.6588 14.6213 19.4513 14.7175 19.2281C14.7768 19.4152 14.8732 19.5883 15.001 19.7371C15.1288 19.886 15.2854 20.0075 15.4613 20.0944C15.7727 20.2198 16.1108 20.2647 16.4442 20.2249C16.7776 20.1852 17.0956 20.062 17.3688 19.8669Z" fill="white"/>
<path d="M10.6172 5.27366H10.6299L10.6268 5.26929L10.6172 5.27366Z" fill="#7C5250"/>
<path d="M11.2961 6.29121C11.3223 6.33496 11.3529 6.38309 11.3792 6.42684C11.2873 6.28246 11.1998 6.14246 11.1167 6.00684C11.1736 6.09871 11.2348 6.19496 11.2961 6.29121ZM12.8011 8.57934C12.9673 8.80684 13.1423 9.03871 13.3261 9.26184C13.2211 9.13934 13.1204 9.01246 13.0242 8.88559C12.9454 8.78496 12.8711 8.68434 12.8011 8.57934Z" fill="#986963"/>
<path d="M13.5099 10.4038H13.3305C13.142 10.4038 12.9893 10.5566 12.9893 10.7451V11.2788C12.9893 11.4673 13.142 11.6201 13.3305 11.6201H13.5099C13.6983 11.6201 13.8511 11.4673 13.8511 11.2788V10.7451C13.8511 10.5566 13.6983 10.4038 13.5099 10.4038Z" fill="#6B3434"/>
<path d="M9.27074 10.7581V11.2919C9.27057 11.3364 9.26159 11.3805 9.24433 11.4216C9.22706 11.4627 9.20185 11.5 9.17014 11.5313C9.13843 11.5626 9.10084 11.5873 9.05954 11.604C9.01824 11.6208 8.97405 11.6292 8.92949 11.6288H8.74574C8.70118 11.6292 8.65698 11.6208 8.61568 11.604C8.57438 11.5873 8.5368 11.5626 8.50508 11.5313C8.47337 11.5 8.44816 11.4627 8.4309 11.4216C8.41363 11.3805 8.40466 11.3364 8.40449 11.2919V10.7581C8.4046 10.6677 8.44059 10.5809 8.50457 10.517C8.56854 10.453 8.65527 10.417 8.74574 10.4169H8.92949C9.01996 10.417 9.10669 10.453 9.17066 10.517C9.23463 10.5809 9.27062 10.6677 9.27074 10.7581ZM7.73599 9.34282C7.69109 9.34255 7.64737 9.32847 7.61075 9.3025C7.57413 9.27653 7.54639 9.23992 7.53129 9.19763C7.5162 9.15535 7.51447 9.10945 7.52636 9.06616C7.53825 9.02287 7.56317 8.98428 7.59774 8.95563C7.65286 8.91188 8.16911 8.53913 9.27074 8.88695C9.29814 8.89556 9.32358 8.9095 9.3456 8.92795C9.36762 8.94639 9.3858 8.969 9.39908 8.99447C9.41237 9.01995 9.4205 9.04779 9.42303 9.0764C9.42555 9.10502 9.42242 9.13385 9.4138 9.16126C9.40518 9.18866 9.39125 9.2141 9.3728 9.23612C9.35435 9.25815 9.33174 9.27632 9.30627 9.2896C9.2808 9.30289 9.25296 9.31102 9.22434 9.31355C9.19573 9.31608 9.16689 9.31294 9.13949 9.30432C8.26011 9.02607 7.87074 9.29776 7.86592 9.30126C7.82803 9.32837 7.78258 9.3429 7.73599 9.34282ZM12.2326 9.24001C12.1867 9.24001 12.142 9.22556 12.1047 9.19872C12.0675 9.17187 12.0396 9.13399 12.0251 9.09043C12.0106 9.04688 12.0101 8.99986 12.0238 8.95604C12.0375 8.91221 12.0646 8.87381 12.1014 8.84626C12.3825 8.6805 12.7125 8.61741 13.035 8.66776C13.0929 8.6707 13.1472 8.6965 13.1861 8.73948C13.225 8.78246 13.2452 8.83912 13.2424 8.89701C13.2425 8.92623 13.2365 8.95515 13.2247 8.98188C13.213 9.00862 13.1956 9.03256 13.174 9.05213C13.1523 9.07171 13.1267 9.08649 13.0989 9.09549C13.0711 9.1045 13.0417 9.10753 13.0127 9.10438C12.7917 9.06784 12.5649 9.10022 12.363 9.19713C12.3253 9.22504 12.2795 9.24007 12.2326 9.24001Z" fill="#6B3434"/>
<path d="M9.15274 10.6093C9.10304 10.6092 9.05482 10.5924 9.01581 10.5616C8.88262 10.4555 8.71734 10.3977 8.54702 10.3977C8.3767 10.3977 8.21143 10.4555 8.07824 10.5616C8.03299 10.598 7.97514 10.6149 7.91742 10.6086C7.8597 10.6024 7.80684 10.5734 7.77046 10.5282C7.73409 10.4829 7.71718 10.4251 7.72345 10.3673C7.72973 10.3096 7.75868 10.2568 7.80393 10.2204C8.01478 10.0519 8.27667 9.96008 8.54659 9.96008C8.8165 9.96008 9.07839 10.0519 9.28924 10.2204C9.32473 10.2487 9.35054 10.2873 9.3631 10.3309C9.37566 10.3745 9.37435 10.4209 9.35936 10.4637C9.34436 10.5066 9.31642 10.5437 9.2794 10.5699C9.24238 10.5962 9.19812 10.6102 9.15274 10.6102V10.6093ZM12.6134 10.6225C12.5681 10.6224 12.524 10.6082 12.4871 10.582C12.4502 10.5558 12.4223 10.5188 12.4073 10.4761C12.3923 10.4333 12.391 10.387 12.4034 10.3435C12.4159 10.3 12.4416 10.2614 12.4769 10.2331C12.6884 10.0651 12.9505 9.97361 13.2206 9.97361C13.4907 9.97361 13.7529 10.0651 13.9644 10.2331C13.9882 10.2505 14.0083 10.2725 14.0235 10.2979C14.0386 10.3232 14.0484 10.3514 14.0524 10.3807C14.0563 10.4099 14.0543 10.4397 14.0464 10.4682C14.0385 10.4966 14.025 10.5232 14.0066 10.5463C13.9882 10.5694 13.9653 10.5885 13.9392 10.6025C13.9132 10.6165 13.8847 10.6251 13.8553 10.6277C13.8259 10.6304 13.7962 10.6271 13.7681 10.618C13.74 10.6089 13.7141 10.5942 13.6918 10.5748C13.5578 10.4681 13.3915 10.41 13.2202 10.41C13.0489 10.41 12.8826 10.4681 12.7486 10.5748C12.71 10.6052 12.6625 10.622 12.6134 10.6225ZM11.9497 14.1544C11.8472 14.2498 11.7263 14.3234 11.5945 14.3705C11.4626 14.4176 11.3225 14.4372 11.1827 14.4283C11.009 14.4444 10.8352 14.3978 10.6927 14.297C10.6745 14.2748 10.652 14.2565 10.6266 14.243C10.6013 14.2295 10.5735 14.2211 10.5449 14.2183C10.5163 14.2156 10.4874 14.2185 10.46 14.2269C10.4325 14.2353 10.4069 14.249 10.3847 14.2673C10.3626 14.2855 10.3442 14.308 10.3307 14.3334C10.3172 14.3587 10.3088 14.3865 10.3061 14.4151C10.3033 14.4437 10.3062 14.4726 10.3146 14.5C10.323 14.5275 10.3367 14.5531 10.355 14.5753C10.4667 14.6763 10.5974 14.754 10.7396 14.8036C10.8818 14.8533 11.0324 14.874 11.1827 14.8645C11.3873 14.8755 11.5918 14.8425 11.7825 14.7676C11.9732 14.6927 12.1455 14.5777 12.2879 14.4305C12.3247 14.3855 12.3421 14.3279 12.3363 14.2701C12.3306 14.2123 12.3021 14.1592 12.2572 14.1224C12.2123 14.0857 12.1547 14.0682 12.0969 14.074C12.0391 14.0797 11.986 14.1082 11.9492 14.1531L11.9497 14.1544ZM11.0427 13.4028C11.1132 13.4026 11.1831 13.3894 11.2488 13.3638C11.3011 13.3416 11.3426 13.2999 11.3647 13.2476C11.3868 13.1953 11.3877 13.1365 11.3672 13.0835C11.3467 13.0306 11.3064 12.9877 11.2548 12.9639C11.2033 12.9401 11.1445 12.9373 11.0909 12.9561C11.0736 12.963 11.0551 12.9662 11.0366 12.9654C11.018 12.9647 10.9999 12.96 10.9832 12.9517C10.9555 12.9382 10.9315 12.9178 10.9137 12.8926C10.9205 12.8387 10.907 12.7841 10.8758 12.7396C10.8445 12.6951 10.7978 12.6638 10.7448 12.6518C10.6917 12.6398 10.6361 12.6481 10.5888 12.6749C10.5415 12.7017 10.5059 12.7452 10.4889 12.7968C10.4697 12.8772 10.4735 12.9613 10.4999 13.0396C10.5262 13.1179 10.5741 13.1872 10.6381 13.2396C10.7473 13.3434 10.892 13.4018 11.0427 13.4028ZM17.3445 12.7154C17.3596 12.7186 17.375 12.7202 17.3904 12.7203C17.4404 12.7202 17.4888 12.703 17.5277 12.6715C17.5665 12.6401 17.5934 12.5963 17.6039 12.5475C17.6404 12.4313 17.7155 12.3312 17.8167 12.2636C17.9179 12.196 18.0392 12.1651 18.1604 12.176C18.218 12.1834 18.2761 12.1676 18.322 12.1321C18.3679 12.0966 18.3978 12.0443 18.4052 11.9868C18.4126 11.9292 18.3968 11.8711 18.3613 11.8252C18.3258 11.7793 18.2735 11.7494 18.216 11.742C17.9859 11.7167 17.7543 11.7749 17.5635 11.9059C17.3726 12.037 17.2351 12.2322 17.1761 12.456C17.164 12.5128 17.175 12.572 17.2066 12.6206C17.2381 12.6693 17.2878 12.7034 17.3445 12.7154Z" fill="#6B3434"/>
<path d="M22.0121 23.6863C21.3379 21.6913 20.2717 20.5651 17.9901 19.457C18.448 18.6078 18.5776 17.6199 18.3541 16.6815C18.4836 16.5001 18.6005 16.31 18.7041 16.1127C19.1103 15.2362 19.293 14.2727 19.2357 13.3083C21.2784 10.5521 20.6646 5.22552 17.9752 2.79171C16.8675 1.7894 12.4137 -0.246289 10.0337 2.22559C9.69255 2.19731 9.34915 2.23688 9.02333 2.342C8.69752 2.44713 8.39575 2.61573 8.13543 2.83809C6.3548 4.19434 5.04318 7.40602 4.88655 9.11009C4.73955 10.7433 5.04624 12.0164 5.75018 12.6945C5.98064 12.9082 6.25489 13.0692 6.55385 13.1662C6.85282 13.2632 7.16932 13.294 7.48136 13.2563C7.5378 13.8526 7.60474 14.3583 7.68305 14.7521C7.96611 16.177 9.82111 17.6702 11.4285 17.7669C11.5344 17.7735 11.6416 17.7765 11.7492 17.7765C11.9132 17.7765 12.0799 17.7665 12.2466 17.752C12.489 18.7495 12.4851 19.4788 12.2261 19.6691C11.9862 19.7996 11.7355 19.9088 11.4766 19.9955L11.4092 20.0213C9.9843 20.5665 7.33218 21.581 6.15924 23.9295C5.68805 24.8649 6.07874 25.3991 6.48736 25.6795C7.41924 26.3331 9.58793 27.0975 12.6329 27.1018C16.6894 27.1018 19.5778 26.1616 20.8199 25.3558C21.5785 24.8601 22.2426 24.3587 22.0121 23.6863ZM17.3719 19.5528C17.3263 19.6046 17.2771 19.6533 17.2249 19.6985C16.9842 19.8665 16.7055 19.9723 16.4139 20.0065C16.1223 20.0407 15.8268 20.0022 15.5537 19.8945C15.4069 19.8218 15.2761 19.7205 15.169 19.5967C15.0619 19.4728 14.9805 19.3287 14.9298 19.173C14.7931 18.4768 14.9052 17.7546 15.2466 17.1325C15.4056 17.2578 15.586 17.3532 15.779 17.4143C16.0998 17.5076 16.4315 17.5582 16.7656 17.5648C16.9925 17.5729 17.2188 17.5355 17.4311 17.4547C17.6434 17.3739 17.8373 17.2514 18.0015 17.0945C18.1323 17.9576 17.8716 19.0693 17.3719 19.5528ZM16.8189 20.5328C16.6707 20.6415 16.5 20.7156 16.3194 20.7498C16.1387 20.7839 15.9527 20.7772 15.7751 20.7301C15.596 20.7198 15.4216 20.6695 15.2645 20.5829C15.1075 20.4962 14.9719 20.3755 14.8677 20.2296C14.8038 20.1046 14.776 19.9644 14.7872 19.8245C14.9456 20.0205 15.1445 20.1799 15.3704 20.2917C15.6288 20.4053 15.9084 20.4626 16.1907 20.4597C16.4724 20.457 16.7511 20.4019 17.0127 20.2974C16.9622 20.3865 16.8966 20.4661 16.8189 20.5328ZM17.2127 24.6146C17.1342 24.7724 17.0189 24.9089 16.8763 25.0125C16.7338 25.1161 16.5684 25.1837 16.3941 25.2096C15.4605 25.3724 13.3316 24.9616 12.9681 24.2848C12.4829 23.3861 13.3325 21.564 14.6327 20.6408C14.9181 20.9301 15.2936 21.1134 15.6972 21.1606C15.8333 21.1854 15.9714 21.1982 16.1097 21.1986C16.3599 21.2023 16.6073 21.1465 16.8316 21.0359C17.4511 22.4792 17.606 23.8656 17.2136 24.6146H17.2127ZM18.3178 15.9049C18.2112 16.1142 18.0871 16.3141 17.9468 16.5025C17.5911 16.9571 17.1646 17.3338 15.8936 16.9912C15.7047 16.9327 15.5355 16.8235 15.4045 16.6753C15.3743 16.5872 15.3565 16.4953 15.3516 16.4023C16.0073 15.818 16.5271 15.0972 16.8745 14.2905C17.0056 14.3758 17.151 14.4369 17.3037 14.4708C17.5783 14.5254 17.8626 14.5043 18.1261 14.4099C18.3897 14.3154 18.6226 14.151 18.7999 13.9344C18.7721 14.6167 18.6085 15.2866 18.3187 15.9049H18.3178ZM7.63668 8.71152L7.62136 8.7579C7.5903 8.85021 7.56011 8.93946 7.53824 9.0204C7.45225 9.3352 7.38938 9.65587 7.35011 9.97984C7.32221 10.179 7.3076 10.3798 7.30636 10.581L7.31293 10.7122C7.34136 11.2783 7.3803 12.0356 7.44418 12.8122C7.19508 12.8441 6.94205 12.8218 6.70234 12.747C6.46263 12.6722 6.24187 12.5465 6.05511 12.3786C5.4483 11.7946 5.18843 10.6475 5.32361 9.14946C5.4693 7.56352 6.74111 4.45202 8.40186 3.18546C8.62911 2.98636 8.89599 2.83771 9.1849 2.74932C9.47381 2.66094 9.77818 2.63483 10.0779 2.67271C10.1144 2.67922 10.1519 2.67637 10.1869 2.66444C10.222 2.6525 10.2534 2.63186 10.2783 2.60446C12.4317 0.226648 16.6391 2.17221 17.6812 3.11546C19.8876 5.11134 20.6125 9.3494 19.4452 12.0685C19.4528 11.7423 19.3666 11.4209 19.197 11.1422C19.0275 10.8635 18.7815 10.6393 18.4884 10.4961C18.4116 10.4652 18.3324 10.4404 18.2517 10.4217C17.9102 10.3567 17.5568 10.4027 17.2433 10.553C17.2002 9.87552 17.0801 9.2052 16.8854 8.5549C16.8834 8.54642 16.8807 8.53809 16.8776 8.52996C16.8546 8.44676 16.8269 8.36495 16.7944 8.28496L16.7253 8.10296C16.5473 7.61168 16.3443 7.12981 16.1172 6.65921C15.7405 5.89416 15.2467 5.19258 14.6537 4.57977L14.3475 4.27352C14.3063 4.23354 14.2511 4.21133 14.1938 4.21166C14.1364 4.21199 14.0815 4.23484 14.0408 4.27529C14.0001 4.31573 13.977 4.37054 13.9763 4.42791C13.9757 4.48527 13.9976 4.54059 14.0373 4.58196L14.3392 4.88427C14.9006 5.46438 15.3679 6.12864 15.7243 6.85302C15.9458 7.31157 16.1432 7.78136 16.3158 8.26046L16.3876 8.44902C16.419 8.52756 16.4462 8.60774 16.4689 8.68921C16.6835 9.42226 16.8035 10.1797 16.8259 10.9432C16.8367 11.035 16.8253 11.128 16.7928 11.2146C16.7603 11.3011 16.7076 11.3786 16.6391 11.4406C16.5899 11.4691 16.5341 11.4841 16.4772 11.4841C16.4204 11.4841 16.3646 11.4691 16.3154 11.4406C16.2397 11.407 16.1636 11.3733 16.0839 11.3335C15.9366 11.263 15.7931 11.1846 15.6543 11.0985L15.4277 10.9515C15.3625 10.9113 15.2938 10.864 15.2251 10.8111C15.0158 10.6598 14.8145 10.4975 14.6222 10.325C14.5076 10.2231 14.3965 10.1168 14.2858 10.0056C14.1751 9.89452 14.0671 9.7869 13.959 9.66177C13.8536 9.54759 13.7481 9.43384 13.6457 9.30565L13.4939 9.12321C13.4064 9.0169 13.3159 8.90446 13.2284 8.78852C13.1492 8.68615 13.0739 8.5829 12.9987 8.48227C12.9961 8.47877 12.9729 8.44727 12.9702 8.44421C12.9296 8.39477 12.8932 8.34271 12.8561 8.29021L12.8079 8.22327C12.7642 8.16421 12.7235 8.10515 12.6815 8.04171L12.6531 7.99796C12.503 7.77921 12.3626 7.56527 12.2256 7.35702L12.1407 7.22971C12.0169 7.03852 11.8988 6.84996 11.7846 6.66709L11.7111 6.55115C11.6647 6.46759 11.614 6.38927 11.5676 6.3184L11.4801 6.17577C11.4197 6.08084 11.3589 5.98546 11.3012 5.89271C11.124 5.61271 10.9599 5.36027 10.8046 5.14327C10.7738 5.10005 10.7283 5.06952 10.6766 5.05737C10.6249 5.04521 10.5706 5.05226 10.5237 5.07721C10.3933 5.14794 10.2665 5.22534 10.144 5.30909C10.0644 5.35521 9.98841 5.40712 9.91649 5.4644C9.49731 5.76867 9.12243 6.1297 8.80261 6.53715C8.70724 6.65484 8.62105 6.77296 8.54011 6.8924C8.48936 6.96634 8.44343 7.03546 8.40886 7.09584C8.3288 7.21527 8.25924 7.33909 8.19011 7.45984L8.1608 7.5119C8.12361 7.58102 8.08686 7.65059 8.06018 7.70877C8.02518 7.77527 7.99411 7.84002 7.95911 7.91484C7.83653 8.17403 7.72888 8.44003 7.63668 8.71152ZM11.7492 20.3595C12.007 20.2745 12.2545 20.1611 12.4872 20.0213C12.9142 19.7068 12.9768 18.9206 12.6841 17.6947C12.748 17.6846 12.8119 17.6794 12.8762 17.6671C13.3438 17.5593 13.7961 17.3932 14.2224 17.1728C14.2693 17.145 14.3041 17.1007 14.3201 17.0486C14.3361 16.9964 14.332 16.9402 14.3086 16.891C14.2853 16.8417 14.2444 16.8029 14.194 16.7822C14.1436 16.7615 14.0872 16.7603 14.036 16.779C13.6436 16.9824 13.2276 17.1367 12.7974 17.2384C12.3559 17.3238 11.9056 17.3551 11.4565 17.3316C10.046 17.2467 8.35899 15.9023 8.11355 14.6681C8.01288 14.1172 7.94104 13.5614 7.8983 13.003C7.82568 12.1573 7.78324 11.312 7.75261 10.6943L7.7443 10.539C7.7408 10.4952 7.7373 10.4488 7.73686 10.3959C7.73686 10.3959 7.74605 10.0826 7.74736 10.0616C7.80113 9.75158 7.87256 9.44483 7.9613 9.1429C7.98274 9.06502 8.0103 8.98365 8.0383 8.90009L8.05361 8.85634C8.14061 8.59692 8.24287 8.34287 8.35986 8.09552C8.38743 8.03646 8.41543 7.97696 8.45218 7.90696C8.48105 7.84484 8.5143 7.78271 8.54493 7.7254L8.57249 7.67727C8.63505 7.56527 8.69893 7.45196 8.77899 7.33209C8.81574 7.26952 8.8573 7.20827 8.90193 7.14309C8.97805 7.03327 9.05724 6.92434 9.14736 6.81277C9.44516 6.43389 9.79411 6.09818 10.1842 5.81527C10.2461 5.76701 10.3113 5.72315 10.3794 5.68402C10.4393 5.64377 10.5014 5.60309 10.5649 5.56415C10.6817 5.73609 10.8042 5.92552 10.9337 6.12896C10.991 6.22171 11.0527 6.31927 11.1109 6.40984L11.1984 6.55334C11.2421 6.62334 11.2894 6.69334 11.3362 6.77777L11.4158 6.90421C11.5317 7.08884 11.6507 7.27871 11.7636 7.45065C11.7676 7.45809 11.7934 7.4944 11.7982 7.50359L11.8616 7.60071C12.0003 7.81246 12.1429 8.03034 12.2956 8.25127C12.2956 8.25127 12.4098 8.41927 12.4557 8.48271L12.4995 8.54659C12.5432 8.6074 12.587 8.66777 12.6465 8.74434C12.7239 8.84977 12.8014 8.95521 12.8797 9.05802C12.9707 9.17965 13.0647 9.29646 13.1614 9.41152L13.3089 9.58871C13.413 9.71996 13.5276 9.84246 13.6335 9.95796C13.7424 10.0848 13.8601 10.203 13.9769 10.3198C14.0937 10.4366 14.211 10.5499 14.3322 10.6571C14.5349 10.8399 14.7471 11.012 14.9679 11.1725C15.0431 11.2285 15.1227 11.2845 15.1945 11.3291L15.4216 11.4765C15.5742 11.5715 15.7319 11.658 15.8941 11.7355C15.9763 11.7762 16.0572 11.8125 16.1404 11.8493C16.2569 11.9082 16.3869 11.9356 16.5174 11.9289C16.6478 11.9221 16.7742 11.8814 16.8841 11.8108C16.9981 11.7229 17.0906 11.6103 17.1547 11.4815C17.2188 11.3526 17.2529 11.2109 17.2542 11.067C17.3823 10.9739 17.5275 10.9071 17.6815 10.8704C17.8355 10.8337 17.9953 10.8278 18.1516 10.8531C18.2088 10.8653 18.2649 10.8826 18.3191 10.9047C18.9469 11.1602 19.1176 12.0024 18.9631 12.7011C18.7855 13.4785 18.1393 14.214 17.3986 14.0499C17.2157 14.0013 17.0474 13.9086 16.9086 13.78C16.8809 13.7583 16.8484 13.7437 16.8138 13.7374C16.7792 13.731 16.7436 13.733 16.71 13.7433C16.6764 13.7536 16.6458 13.7719 16.6207 13.7965C16.5957 13.8212 16.5769 13.8515 16.5661 13.885C16.2391 14.7592 15.6975 15.5372 14.9911 16.1473L14.9871 16.1516C14.9673 16.168 14.951 16.1882 14.9394 16.2111L14.9359 16.216C14.9285 16.233 14.9233 16.2509 14.9206 16.2693C14.9172 16.2799 14.9149 16.2907 14.9136 16.3017V16.3074C14.9137 16.451 14.9324 16.5939 14.9692 16.7326C14.5068 17.4734 14.3374 18.3599 14.4941 19.219C14.3415 19.5478 14.3128 19.9206 14.4131 20.269C14.0295 20.54 13.6874 20.8656 13.3977 21.2354C13.2059 21.2375 13.0144 21.2521 12.8246 21.2791C12.5778 21.3383 12.3206 21.3383 12.0738 21.2791C11.8319 21.1571 11.6341 20.9563 11.747 20.3595H11.7492ZM20.5788 24.99C19.6202 25.6126 16.8666 26.6656 12.6312 26.6656C9.68855 26.6617 7.61655 25.9398 6.73543 25.3221C6.48343 25.1471 6.1903 24.8356 6.54818 24.1255C7.57499 22.0693 9.86968 21.0858 11.2837 20.538C11.2461 20.765 11.2835 20.998 11.3901 21.2018C11.4968 21.4056 11.6669 21.5691 11.8747 21.6676C12.0191 21.7334 12.1769 21.7644 12.3354 21.7582C12.5174 21.7538 12.6989 21.7374 12.8788 21.7092C12.9427 21.7009 13.0057 21.6939 13.0691 21.686C12.4479 22.6717 12.2037 23.7886 12.5835 24.4921C13.0144 25.2906 14.7688 25.6817 15.9085 25.6817C16.0972 25.684 16.2857 25.6701 16.472 25.6401C16.7121 25.6027 16.9399 25.5086 17.1365 25.3656C17.3331 25.2227 17.4928 25.035 17.6025 24.8181C18.0702 23.926 17.9087 22.3838 17.1952 20.7673C17.4078 20.5499 17.5419 20.2679 17.5762 19.9658C17.6156 19.9281 17.6589 19.8914 17.6913 19.8533C17.7031 19.8415 17.7123 19.8253 17.7241 19.8131C19.9654 20.8871 20.9529 21.9131 21.5999 23.8271C21.7001 24.1238 21.4236 24.4392 20.5788 24.99Z" fill="#6B3434"/>
</svg>
