<svg width="54" height="54" viewBox="0 0 54 54" fill="none" xmlns="http://www.w3.org/2000/svg">
<path d="M19.5379 24.4998H34.4633C34.2583 17.6644 33.2229 11.6084 31.7068 7.18666C30.8534 4.69751 29.8936 2.86237 28.951 1.69946C27.9915 0.515783 27.3172 0.33313 27.0006 0.33313C26.684 0.33313 26.0097 0.515783 25.0502 1.69946C24.1076 2.86237 23.1478 4.69751 22.2944 7.18666C20.7784 11.6084 19.7429 17.6644 19.5379 24.4998Z" fill="black"/>
<path d="M34.4633 29.4998C34.2583 36.3352 33.2229 42.3911 31.7068 46.8129C30.8534 49.3021 29.8936 51.1372 28.951 52.3001C27.9915 53.4838 27.3172 53.6665 27.0006 53.6665C26.684 53.6665 26.0097 53.4838 25.0502 52.3001C24.1076 51.1372 23.1478 49.3021 22.2944 46.8129C20.7784 42.3911 19.7429 36.3352 19.5379 29.4998H34.4633Z" fill="black"/>
<path d="M39.4654 29.4998H53.5516C52.5346 40.4387 44.9104 49.4603 34.7085 52.5355C35.3535 51.2975 35.9287 49.9158 36.4365 48.4346C38.1617 43.4029 39.2596 36.7773 39.4654 29.4998Z" fill="black"/>
<path d="M53.5516 24.4998H39.4654C39.2596 17.2223 38.1617 10.5967 36.4365 5.56504C35.9287 4.08383 35.3535 2.70213 34.7085 1.46404C44.9104 4.53925 52.5346 13.5609 53.5516 24.4998Z" fill="black"/>
<path d="M14.5358 24.4998H0.449585C1.46665 13.5609 9.09081 4.53925 19.2927 1.46404C18.6477 2.70213 18.0725 4.08383 17.5647 5.56504C15.8395 10.5967 14.7416 17.2223 14.5358 24.4998Z" fill="black"/>
<path d="M14.5358 29.4998H0.449585C1.46665 40.4387 9.09081 49.4604 19.2927 52.5356C18.6477 51.2975 18.0725 49.9158 17.5647 48.4346C15.8395 43.4029 14.7416 36.7773 14.5358 29.4998Z" fill="black"/>
</svg>
