<svg width="24" height="18" viewBox="0 0 24 18" fill="none" xmlns="http://www.w3.org/2000/svg">
<path fill-rule="evenodd" clip-rule="evenodd" d="M2 0C0.895431 0 0 0.895428 0 2V15.9999C0 17.1045 0.89543 17.9999 2 17.9999H22C23.1046 17.9999 24 17.1045 24 15.9999V2C24 0.895431 23.1046 0 22 0H2ZM3.55559 9.02284C3.55559 5.64873 3.56558 2.87762 3.5778 2.86481C3.61335 2.82744 5.04605 2.8379 5.58133 2.87944C7.2229 3.00676 8.56167 3.6909 9.63561 4.95112C10.8444 6.36967 11.3424 8.3478 10.9686 10.2458C10.5085 12.5819 8.66816 14.5111 6.43699 14.9963C5.91824 15.1092 5.28556 15.1575 4.32817 15.1575H3.55559V9.02284ZM14.9146 4.40925C15.8788 3.51399 17.0853 2.97933 18.3623 2.88147C18.5822 2.8646 19.1368 2.85267 19.5948 2.85491L20.4276 2.85897L20.436 9.00825L20.4445 15.1575H19.6718C18.2976 15.1575 17.5309 15.0564 16.793 14.7779C15.9466 14.4585 15.3012 14.0237 14.6299 13.3209C13.952 12.6111 13.5276 11.9052 13.2308 10.9939C12.4603 8.62753 13.1107 6.08437 14.9146 4.40925Z" fill="#ABABAB"/>
</svg>
