<svg width="16" height="19" viewBox="0 0 16 19" fill="none" xmlns="http://www.w3.org/2000/svg">
<path d="M12.5558 6.5H10.8333V1.08333C10.8333 0.4875 10.3458 0 9.75 0H5.41667C4.82083 0 4.33333 0.4875 4.33333 1.08333V6.5H2.61083C1.64667 6.5 1.15917 7.67 1.84167 8.3525L6.81417 13.325C7.23667 13.7475 7.91917 13.7475 8.34167 13.325L13.3142 8.3525C13.9967 7.67 13.52 6.5 12.5558 6.5ZM0 17.3333C0 17.9292 0.4875 18.4167 1.08333 18.4167H14.0833C14.6792 18.4167 15.1667 17.9292 15.1667 17.3333C15.1667 16.7375 14.6792 16.25 14.0833 16.25H1.08333C0.4875 16.25 0 16.7375 0 17.3333Z" fill="#ABABAB"/>
</svg>
