<svg width="107" height="107" viewBox="0 0 107 107" fill="none" xmlns="http://www.w3.org/2000/svg">
<path d="M31.5965 39.3433L27.9774 30.4176C27.7007 29.7356 27.2588 29.1332 26.6913 28.6647C26.1239 28.1961 25.4487 27.8761 24.7268 27.7335L21.1542 27.0282C20.5235 26.9037 19.9646 26.5419 19.5927 26.0175C19.2208 25.4932 19.0642 24.8461 19.1552 24.2097L19.2021 23.8815C19.2502 23.5433 19.3668 23.2185 19.5448 22.927C19.7228 22.6354 19.9583 22.3833 20.2371 22.1859C20.5158 21.9885 20.8319 21.8501 21.166 21.7791C21.5001 21.7081 21.8452 21.706 22.1802 21.7729L25.5969 22.4562C27.2703 22.7909 28.8466 23.499 30.2083 24.5276C31.5701 25.5562 32.6822 26.8788 33.4617 28.3969L35.7692 32.8902L31.5965 39.3433ZM75.4051 39.3433L79.0242 30.4176C79.3008 29.7356 79.7428 29.1332 80.3103 28.6647C80.8777 28.1961 81.5528 27.8761 82.2748 27.7335L85.8452 27.0282C86.4758 26.9037 87.0347 26.5419 87.4066 26.0175C87.7786 25.4932 87.9352 24.8461 87.8442 24.2097L87.7973 23.8815C87.7491 23.5433 87.6325 23.2185 87.4546 22.927C87.2766 22.6354 87.041 22.3833 86.7623 22.1859C86.4835 21.9885 86.1674 21.8501 85.8333 21.7791C85.4992 21.7081 85.1542 21.706 84.8192 21.7729L81.4024 22.4562C79.729 22.7909 78.1528 23.499 76.791 24.5276C75.4293 25.5562 74.3172 26.8788 73.5376 28.3969L71.2302 32.8902L75.4051 39.3433Z" fill="#7D889E"/>
<path d="M69.3587 26.491V9.26147H37.6413V26.491C37.6414 27.6374 37.2785 28.7543 36.6047 29.6818L29.0832 40.0356C28.4095 40.963 28.0466 42.0798 28.0466 43.2261V94.9134C44.575 100.38 62.4244 100.38 78.9528 94.9134V43.2255C78.9528 42.0792 78.5899 40.9624 77.9161 40.035L70.3947 29.6812C69.7212 28.7538 69.3586 27.6371 69.3587 26.491Z" fill="#E6E6E6"/>
<path d="M69.8244 57.9232L62.0329 59.0363C59.3299 53.471 53.5 54.1071 53.5 54.1071C53.5 54.1071 47.6701 53.471 44.9671 59.0363L37.1756 57.9232C37.1756 57.9232 36.7781 64.8401 43.4565 64.8401L43.6591 68.39C43.7347 69.7104 44.1567 70.9876 44.8827 72.0931L46.1353 74.0003C46.55 74.6322 46.985 75.2953 47.074 76.0392L53.5 78.4939L59.926 76.0392C59.926 75.2902 60.45 74.6322 60.8647 74.0003L62.1173 72.0931C62.8433 70.9876 63.2653 69.7104 63.3409 68.39L63.5435 64.8401C70.2219 64.8401 69.8244 57.9232 69.8244 57.9232Z" fill="white"/>
<path d="M54.8032 83.7747C56.1089 83.5464 57.2976 82.8792 58.1725 81.8834C59.0475 80.8877 59.5563 79.6231 59.6147 78.2988L59.6365 77.806C59.6638 77.209 59.7624 76.6173 59.9301 76.0437C58.754 76.0185 56.7346 76.1415 55.0893 77.09C54.6066 77.3705 54.0583 77.5182 53.5 77.5182C52.9418 77.5182 52.3934 77.3705 51.9107 77.09C50.2655 76.1415 48.246 76.0185 47.0699 76.0437C47.2376 76.6173 47.3362 77.209 47.3636 77.806L47.3853 78.2995C47.4443 79.6235 47.9533 80.8877 48.8282 81.8832C49.7031 82.8787 50.8914 83.546 52.1968 83.7747C53.0591 83.9255 53.9409 83.9255 54.8032 83.7747Z" fill="#3D4554"/>
<path d="M46.1516 33.2858C44.0263 33.0637 41.9199 32.6882 39.8487 32.1623C39.7204 32.1283 39.5844 32.1377 39.462 32.1889C39.3395 32.2401 39.2374 32.3303 39.1714 32.4455L37.9828 34.5103C37.9393 34.5856 37.9126 34.6694 37.9043 34.756C37.896 34.8425 37.9065 34.9298 37.9349 35.012C37.9633 35.0942 38.009 35.1693 38.069 35.2323C38.1289 35.2953 38.2017 35.3446 38.2824 35.377C40.4299 36.239 43.0392 36.7668 45.5065 37.0887C45.6592 37.1081 45.8136 37.0685 45.9382 36.9779C46.0627 36.8874 46.1481 36.7528 46.1768 36.6015L46.6803 34.0018C46.696 33.9197 46.6945 33.8352 46.6759 33.7537C46.6574 33.6722 46.6222 33.5954 46.5725 33.5282C46.5229 33.4609 46.4598 33.4047 46.3874 33.363C46.315 33.3213 46.2347 33.295 46.1516 33.2858ZM50.2006 34.2689L50.0244 36.746C50.0174 36.8434 50.0299 36.9412 50.0613 37.0337C50.0928 37.1262 50.1424 37.2114 50.2073 37.2844C50.2723 37.3574 50.3511 37.4166 50.4393 37.4585C50.5275 37.5005 50.6233 37.5243 50.7208 37.5287C51.7748 37.574 52.6383 37.5863 53.2045 37.5878C53.3008 37.5882 53.3962 37.5696 53.4853 37.5331C53.5744 37.4965 53.6554 37.4427 53.7237 37.3747C53.7919 37.3068 53.8461 37.226 53.883 37.1371C53.92 37.0481 53.939 36.9528 53.939 36.8565V34.3099C53.9387 34.2117 53.9188 34.1147 53.8803 34.0244C53.8418 33.9342 53.7857 33.8525 53.7151 33.7844C53.6445 33.7162 53.561 33.6629 53.4694 33.6276C53.3779 33.5923 53.2802 33.5757 53.1821 33.5788C52.4157 33.5998 51.6709 33.6034 50.9477 33.5898C50.7599 33.5858 50.5778 33.654 50.4388 33.7804C50.2998 33.9068 50.2145 34.0816 50.2006 34.2689Z" fill="white"/>
<path d="M69.3587 26.491V9.26147H61.3532V27.1276C61.3532 29.0681 61.9582 30.9602 63.0841 32.5406L69.5006 41.5494C70.6264 43.1298 71.2314 45.0219 71.2315 46.9623V87.9496C71.2315 87.9496 71.1522 93.8047 64.9968 98.1753C69.7363 97.5025 74.4069 96.411 78.9537 94.9137V43.2255C78.9537 42.0792 78.5908 40.9624 77.9171 40.035L70.3956 29.6812C69.7218 28.7539 69.3588 27.6372 69.3587 26.491Z" fill="#CCCCCC"/>
<path d="M24.0467 97.2171C24.0461 97.9281 24.2813 98.6193 24.7155 99.1824C25.1496 99.7455 25.7582 100.149 26.446 100.329C44.176 105.027 62.824 105.027 80.554 100.329C81.2418 100.149 81.8504 99.7455 82.2845 99.1824C82.7187 98.6193 82.9539 97.9281 82.9533 97.2171C82.9529 96.7305 82.8421 96.2505 82.6292 95.813C82.4163 95.3755 82.107 94.9921 81.7244 94.6915C81.3419 94.3909 80.8961 94.181 80.4207 94.0777C79.9453 93.9743 79.4527 93.9802 78.9798 94.0949C62.238 98.1722 44.762 98.1722 28.0202 94.0949C27.5473 93.9802 27.0547 93.9743 26.5793 94.0777C26.1039 94.181 25.6581 94.3909 25.2756 94.6915C24.893 94.9921 24.5837 95.3755 24.3708 95.813C24.1579 96.2505 24.0471 96.7305 24.0467 97.2171ZM69.5664 9.26149C58.9027 10.6772 48.0986 10.6772 37.4349 9.26149C36.6241 9.26149 35.8465 8.93941 35.2731 8.36611C34.6998 7.79281 34.3776 7.01524 34.3775 6.20443C34.3775 5.39379 34.6995 4.61632 35.2726 4.04299C35.8457 3.46966 36.623 3.1474 37.4336 3.14706C48.098 4.55275 58.9007 4.55275 69.5651 3.14706C70.376 3.14706 71.1536 3.46918 71.727 4.04255C72.3004 4.61591 72.6225 5.39357 72.6225 6.20443C72.6224 7.01502 72.3004 7.79241 71.7273 8.36567C71.1542 8.93893 70.377 9.26115 69.5664 9.26149Z" fill="#7D889E"/>
<path d="M62.0329 59.0363C61.3873 57.658 60.3861 56.4766 59.1323 55.6137C57.8785 54.7508 56.4175 54.2376 54.8995 54.1269C53.7556 55.6763 53.0362 57.4976 52.8127 59.4106C52.5893 61.3235 52.8694 63.2616 53.6253 65.033C54.3813 66.8043 55.5868 68.3475 57.1226 69.5096C58.6584 70.6717 60.4712 71.4125 62.3813 71.6585C62.9468 70.6565 63.2751 69.5381 63.3409 68.3894L63.5435 64.8395C70.2219 64.8395 69.8244 57.9226 69.8244 57.9226L62.0329 59.0363ZM49.9753 65.8428C49.6415 65.8423 49.3214 65.71 49.0847 65.4746C49.0265 65.4163 48.9748 65.3519 48.9305 65.2826C48.8837 65.2148 48.8446 65.1419 48.814 65.0654C48.7819 64.9894 48.7576 64.9104 48.7416 64.8294C48.7003 64.6269 48.71 64.4173 48.7699 64.2196C48.8298 64.0218 48.938 63.842 49.0847 63.6965C49.1427 63.6372 49.2071 63.5844 49.2766 63.5391C49.3449 63.493 49.4176 63.454 49.4938 63.4227C49.7234 63.3264 49.9767 63.3012 50.2208 63.3503C50.3017 63.3663 50.3808 63.3905 50.4568 63.4227C50.5333 63.4533 50.6061 63.4923 50.6739 63.5391C50.7441 63.5836 50.8085 63.6364 50.8659 63.6965C51.0126 63.842 51.1208 64.0218 51.1807 64.2196C51.2406 64.4173 51.2503 64.6269 51.2089 64.8294C51.194 64.9103 51.1708 64.9893 51.1397 65.0654C51.1078 65.1413 51.0688 65.214 51.0233 65.2826C50.9768 65.3513 50.9242 65.4155 50.8659 65.4746C50.7489 65.5914 50.61 65.6841 50.4572 65.7473C50.3044 65.8104 50.1407 65.8429 49.9753 65.8428Z" fill="#3D4554"/>
<path d="M56.6974 65.8428C56.3636 65.8423 56.0435 65.71 55.8068 65.4746C55.7486 65.4163 55.6969 65.3519 55.6526 65.2826C55.6058 65.2148 55.5668 65.1419 55.5361 65.0654C55.504 64.9894 55.4798 64.9104 55.4638 64.8294C55.4224 64.6269 55.4321 64.4174 55.492 64.2196C55.5519 64.0218 55.6601 63.842 55.8068 63.6965C55.8648 63.6372 55.9292 63.5844 55.9988 63.5391C56.067 63.493 56.1397 63.454 56.2159 63.4227C56.2922 63.3914 56.3712 63.3672 56.4519 63.3503C56.6552 63.311 56.8649 63.322 57.063 63.3824C57.261 63.4427 57.4412 63.5505 57.588 63.6965C57.7048 63.8129 57.7974 63.9512 57.8606 64.1035C57.9238 64.2558 57.9563 64.4191 57.9562 64.5839C57.9569 64.6663 57.9495 64.7485 57.9342 64.8294C57.9168 64.91 57.8925 64.9889 57.8618 65.0654C57.83 65.1413 57.791 65.214 57.7454 65.2826C57.6999 65.352 57.6472 65.4164 57.588 65.4746C57.4712 65.5916 57.3323 65.6844 57.1795 65.7476C57.0266 65.8108 56.8628 65.8431 56.6974 65.8428Z" fill="white"/>
</svg>
