<svg width="23" height="23" viewBox="0 0 23 23" fill="none" xmlns="http://www.w3.org/2000/svg">
<path d="M18.8324 7.0589H4.94492C4.77576 7.05969 4.61266 7.12207 4.48614 7.23436C4.35961 7.34665 4.27831 7.50118 4.25742 7.66906L3.03711 18.6691C3.02626 18.7649 3.03569 18.862 3.06481 18.9539C3.09392 19.0459 3.14205 19.1307 3.20608 19.2028C3.27011 19.2749 3.34861 19.3328 3.43646 19.3726C3.52432 19.4124 3.61956 19.4333 3.71602 19.4339H20.0613C20.1578 19.4333 20.253 19.4124 20.3409 19.3726C20.4287 19.3328 20.5072 19.2749 20.5713 19.2028C20.6353 19.1307 20.6834 19.0459 20.7125 18.9539C20.7417 18.862 20.7511 18.7649 20.7402 18.6691L19.5199 7.66906C19.499 7.50118 19.4177 7.34665 19.2912 7.23436C19.1647 7.12207 19.0016 7.05969 18.8324 7.0589Z" stroke="black" stroke-linecap="round" stroke-linejoin="round"/>
<path d="M8.45117 9.8089V7.0589C8.45117 6.14722 8.81334 5.27288 9.45799 4.62822C10.1026 3.98356 10.977 3.6214 11.8887 3.6214C12.8004 3.6214 13.6747 3.98356 14.3194 4.62822C14.964 5.27288 15.3262 6.14722 15.3262 7.0589V9.8089" stroke="black" stroke-linecap="round" stroke-linejoin="round"/>
</svg>
