<svg width="23" height="21" viewBox="0 0 23 21" fill="#000" xmlns="http://www.w3.org/2000/svg">
<path d="M13.5591 18.3505V14.2255C13.5591 14.0431 13.4866 13.8683 13.3577 13.7393C13.2288 13.6104 13.0539 13.538 12.8716 13.538H10.1216C9.93925 13.538 9.76438 13.6104 9.63545 13.7393C9.50651 13.8683 9.43408 14.0431 9.43408 14.2255V18.3505C9.43408 18.5328 9.36165 18.7077 9.23272 18.8366C9.10379 18.9655 8.92892 19.038 8.74658 19.038H4.62158C4.43925 19.038 4.26438 18.9655 4.13545 18.8366C4.00651 18.7077 3.93408 18.5328 3.93408 18.3505V10.4012C3.93562 10.3061 3.95618 10.2122 3.99456 10.1251C4.03293 10.0381 4.08834 9.95955 4.15752 9.89421L11.0325 3.64656C11.1593 3.53061 11.3248 3.46631 11.4966 3.46631C11.6684 3.46631 11.8339 3.53061 11.9606 3.64656L18.8356 9.89421C18.9048 9.95955 18.9602 10.0381 18.9986 10.1251C19.037 10.2122 19.0575 10.3061 19.0591 10.4012V18.3505C19.0591 18.5328 18.9866 18.7077 18.8577 18.8366C18.7288 18.9655 18.5539 19.038 18.3716 19.038H14.2466C14.0642 19.038 13.8894 18.9655 13.7604 18.8366C13.6315 18.7077 13.5591 18.5328 13.5591 18.3505Z" fill="none" stroke="#2FA52D" stroke-linecap="round" stroke-linejoin="round"/>
</svg>
