<svg width="19" height="19" viewBox="0 0 19 19" fill="#000" xmlns="http://www.w3.org/2000/svg">
<path d="M9.35156 0.290527C4.28897 0.290527 0.184891 4.3946 0.184891 9.45719C0.184891 14.5198 4.28897 18.6239 9.35156 18.6239C14.4117 18.6181 18.5125 14.5174 18.5182 9.45719C18.5182 4.3946 14.4141 0.290527 9.35156 0.290527ZM9.35156 17.7072C7.15221 17.7072 5.15908 16.8411 3.68013 15.4382C4.27722 13.5695 5.75248 12.1093 7.63538 11.5431C10.7541 10.6052 14.0371 12.3471 15.024 15.4373C13.5449 16.8407 11.5514 17.7072 9.35156 17.7072ZM6.60156 7.62386C6.60156 6.10507 7.83277 4.87386 9.35156 4.87386C10.8697 4.87554 12.0999 6.10574 12.1016 7.62386C12.1016 9.14265 10.8703 10.3739 9.35156 10.3739C7.83277 10.3739 6.60156 9.14265 6.60156 7.62386ZM15.7244 14.696C14.9553 12.7774 13.3656 11.2926 11.3705 10.6796C12.3614 10.0232 13.0168 8.90123 13.0182 7.62386C13.0182 5.59879 11.3766 3.95719 9.35156 3.95719C7.32649 3.95719 5.68489 5.59879 5.68489 7.62386C5.68489 8.90033 6.3386 10.0221 7.328 10.6787C5.39821 11.2751 3.76579 12.7114 2.97411 14.6898C1.80444 13.2658 1.10156 11.4438 1.10156 9.45719C1.10156 4.90083 4.79519 1.20719 9.35156 1.20719C13.9058 1.21234 17.5964 4.90295 17.6016 9.45719C17.6016 11.4466 16.897 13.2712 15.7244 14.696Z" fill="black"/>
</svg>
