<svg width="23" height="23" viewBox="0 0 23 23" fill="#000" xmlns="http://www.w3.org/2000/svg">
<path d="M4.36328 5.85468V16.8547C4.36328 17.2193 4.50815 17.5691 4.76601 17.8269C5.02387 18.0848 5.37361 18.2297 5.73828 18.2297H19.4883C19.6706 18.2297 19.8455 18.1572 19.9744 18.0283C20.1033 17.8994 20.1758 17.7245 20.1758 17.5422V7.91718C20.1758 7.73484 20.1033 7.55997 19.9744 7.43104C19.8455 7.30211 19.6706 7.22968 19.4883 7.22968H5.73828C5.37361 7.22968 5.02387 7.08481 4.76601 6.82695C4.50815 6.56908 4.36328 6.21935 4.36328 5.85468ZM4.36328 5.85468C4.36328 5.49 4.50815 5.14027 4.76601 4.8824C5.02387 4.62454 5.37361 4.47968 5.73828 4.47968H17.4258" stroke="black" stroke-linecap="round" stroke-linejoin="round"/>
<path d="M16.3945 13.7609C16.9641 13.7609 17.4258 13.2992 17.4258 12.7297C17.4258 12.1601 16.9641 11.6984 16.3945 11.6984C15.825 11.6984 15.3633 12.1601 15.3633 12.7297C15.3633 13.2992 15.825 13.7609 16.3945 13.7609Z" fill="black"/>
</svg>
